<?xml version="1.0" encoding="UTF-8" standalone="no"?>
<svg
   xmlns:svg="http://www.w3.org/2000/svg"
   xmlns="http://www.w3.org/2000/svg"
   id="frame-lateral-wings"
   version="1.1"
   viewBox="0 0 1280 720"
   height="720"
   width="1280">
  <defs
     id="defs34602">
    <filter
       height="1.0475913"
       y="-0.023795635"
       width="1.1478083"
       x="-0.073904138"
       id="frame-lateral-wings-right-filter-lightgray"
       style="color-interpolation-filters:sRGB">
      <feGaussianBlur
         id="feGaussianBlur54220"
         stdDeviation="2.0318538" />
    </filter>
    <filter
       height="1.1269101"
       y="-0.063455028"
       width="1.3941554"
       x="-0.1970777"
       id="frame-lateral-wings-right-filter-darkgray"
       style="color-interpolation-filters:sRGB">
      <feGaussianBlur
         id="feGaussianBlur54228"
         stdDeviation="5.4182769" />
    </filter>
    <filter
       height="1.6345503"
       y="-0.31727515"
       width="2.9707768"
       x="-0.98538839"
       id="frame-lateral-wings-right-filter-black"
       style="color-interpolation-filters:sRGB">
      <feGaussianBlur
         id="feGaussianBlur54236"
         stdDeviation="27.091386" />
    </filter>
    <filter
       height="1.0475913"
       y="-0.023795636"
       width="1.1478083"
       x="-0.073904136"
       id="frame-lateral-wings-left-filter-lightgray"
       style="color-interpolation-filters:sRGB">
      <feGaussianBlur
         id="feGaussianBlur54240"
         stdDeviation="2.0318538" />
    </filter>
    <filter
       height="1.1269101"
       y="-0.063455028"
       width="1.3941554"
       x="-0.1970777"
       id="frame-lateral-wings-left-filter-darkgray"
       style="color-interpolation-filters:sRGB">
      <feGaussianBlur
         id="feGaussianBlur54248"
         stdDeviation="5.4182768" />
    </filter>
    <filter
       height="1.6345503"
       y="-0.31727515"
       width="2.9707767"
       x="-0.98538837"
       id="frame-lateral-wings-left-filter-black"
       style="color-interpolation-filters:sRGB">
      <feGaussianBlur
         id="feGaussianBlur54256"
         stdDeviation="27.091385" />
    </filter>
  </defs>
  <metadata
     id="metadata34605">
    </metadata>
  <g
     id="frame-lateral-wings-layer">
    <g
       style="display:inline"
       id="frame-lateral-wings-container">
      <g
         id="frame-lateral-wings-right"
         style="display:inline">
        <path
           class="frame-lateral-wings-right-black"
           d="m 558.54401,579.30608 c -0.65513,-1.79654 -12.56523,-40.83075 -12.56523,-41.18137 0,-0.25036 1.10988,-1.20153 2.46665,-2.11393 7.98671,-5.3714 17.3055,-14.61087 22.67313,-22.48049 3.49871,-5.12934 10.50317,-18.27142 13.78647,-25.86678 6.25057,-14.45945 11.62303,-36.03467 14.12578,-56.72736 0.40745,-3.36764 0.52904,-9.11138 0.64229,-30.32199 0.0768,-14.39198 0.26084,-26.04106 0.40877,-25.88674 0.68574,0.71451 5.1047,20.08151 7.15029,31.33713 3.26586,17.97005 4.72293,32.9668 4.73007,48.68112 0,10.88387 -0.46484,17.05036 -2.02222,26.54252 -5.70474,34.77136 -15.87508,61.14833 -30.55393,79.24196 -4.83092,5.9549 -12.44035,13.30106 -18.47748,17.83817 -1.93421,1.45364 -2.14589,1.53757 -2.36459,0.93776 0,0 0,0 0,0"
           style="display:inline;fill:#000000;stroke:#000000;stroke-width:20;stroke-miterlimit:4;stroke-dasharray:none;stroke-opacity:1;filter:url(#frame-lateral-wings-right-filter-black)"
           id="path36520b" />
        <path
           class="frame-lateral-wings-right-darkgray"
           d="m 558.54401,579.30608 c -0.65512,-1.79654 -12.56522,-40.83075 -12.56522,-41.18137 0,-0.25036 1.10987,-1.20153 2.46665,-2.11393 7.9867,-5.3714 17.30549,-14.61087 22.67312,-22.48049 3.49872,-5.12934 10.50317,-18.27142 13.78648,-25.86678 6.25057,-14.45945 11.62303,-36.03467 14.12578,-56.72736 0.40745,-3.36764 0.52904,-9.11138 0.64228,-30.32199 0.0768,-14.39198 0.26085,-26.04106 0.40877,-25.88674 0.68574,0.71451 5.10471,20.08151 7.1503,31.33713 3.26585,17.97005 4.72293,32.9668 4.73006,48.68112 0,10.88387 -0.46484,17.05036 -2.02222,26.54252 -5.70474,34.77136 -15.87508,61.14833 -30.55393,79.24196 -4.83091,5.9549 -12.44034,13.30106 -18.47748,17.83817 -1.9342,1.45364 -2.14588,1.53757 -2.36459,0.93776 0,0 0,0 0,0"
           style="display:inline;opacity:1;fill:#555555;fill-opacity:1;stroke:#555555;stroke-width:10;stroke-miterlimit:4;stroke-dasharray:none;stroke-opacity:1;filter:url(#frame-lateral-wings-right-filter-darkgray)"
           id="path36518b" />
        <path
           class="frame-lateral-wings-right-lightgray"
           d="m 558.544,579.30608 c -0.65512,-1.79654 -12.56522,-40.83075 -12.56522,-41.18137 0,-0.25036 1.10987,-1.20153 2.46665,-2.11393 7.9867,-5.3714 17.30549,-14.61087 22.67313,-22.48049 3.49871,-5.12934 10.50317,-18.27142 13.78647,-25.86678 6.25057,-14.45945 11.62303,-36.03467 14.12578,-56.72736 0.40745,-3.36764 0.52904,-9.11138 0.64229,-30.32199 0.0768,-14.39198 0.26084,-26.04106 0.40876,-25.88674 0.68575,0.71451 5.10471,20.08151 7.1503,31.33713 3.26586,17.97005 4.72293,32.9668 4.73006,48.68112 0,10.88387 -0.46484,17.05036 -2.02221,26.54252 -5.70474,34.77136 -15.87509,61.14833 -30.55394,79.24196 -4.83091,5.9549 -12.44034,13.30106 -18.47747,17.83817 -1.93421,1.45364 -2.14589,1.53757 -2.3646,0.93776 0,0 0,0 0,0"
           style="display:inline;opacity:1;fill:#aaaaaa;fill-opacity:1;stroke:#aaaaaa;stroke-width:3;stroke-miterlimit:4;stroke-dasharray:none;stroke-opacity:1;filter:url(#frame-lateral-wings-right-filter-lightgray)"
           id="path36516b" />
        <path
           class="frame-lateral-wings-right-white"
           d="m 558.54408,579.30608 c -0.6552,-1.79654 -12.56529,-40.83079 -12.56529,-41.18134 0,-0.25043 1.10989,-1.20152 2.46665,-2.11391 7.98676,-5.37152 17.30598,-14.61091 22.67361,-22.48052 3.49869,-5.1293 10.5027,-18.27137 13.78602,-25.86678 6.25058,-14.4596 11.62306,-36.03476 14.12583,-56.72741 0.40744,-3.36774 0.52896,-9.11148 0.64227,-30.32203 0.0765,-14.39201 0.26082,-26.04099 0.40878,-25.88663 0.68569,0.7144 5.10468,20.08147 7.15029,31.33705 3.26577,17.96998 4.7229,32.96685 4.72999,48.68111 0,10.88381 -0.46482,17.05027 -2.02221,26.54255 -5.70474,34.77131 -15.87506,61.14838 -30.55392,79.24193 -4.83092,5.95488 -12.44029,13.30105 -18.47742,17.83819 -1.93421,1.4536 -2.14597,1.53758 -2.3646,0.93779 0,0 0,0 0,0"
           style="display:inline;fill:#ffffff;stroke-width:1.53359783"
           id="path36514b" />
      </g>
      <g
         style="display:inline"
         id="frame-lateral-wings-left">
        <path
           class="frame-lateral-wings-left-black"
           style="display:inline;fill:#000000;stroke:#000000;stroke-width:20;stroke-miterlimit:4;stroke-dasharray:none;stroke-opacity:1;filter:url(#frame-lateral-wings-left-filter-black)"
           d="m 721.45611,579.27928 c 0.65513,-1.79654 12.56523,-40.83074 12.56523,-41.18137 0,-0.25036 -1.10988,-1.20153 -2.46665,-2.11393 -7.98671,-5.3714 -17.3055,-14.61087 -22.67313,-22.48049 -3.49871,-5.12934 -10.50317,-18.27141 -13.78647,-25.86677 -6.25057,-14.45946 -11.62303,-36.03468 -14.12579,-56.72737 -0.40745,-3.36764 -0.52903,-9.11137 -0.64228,-30.32198 -0.0768,-14.39199 -0.26084,-26.04107 -0.40877,-25.88674 -0.68574,0.7145 -5.1047,20.0815 -7.15029,31.33712 -3.26586,17.97005 -4.72293,32.96681 -4.73007,48.68113 0,10.88386 0.46484,17.05036 2.02222,26.54251 5.70474,34.77136 15.87508,61.14833 30.55393,79.24196 4.83092,5.9549 12.44035,13.30106 18.47748,17.83817 1.93421,1.45364 2.14589,1.53758 2.36459,0.93776 0,0 0,0 0,0"
           id="path36514" />
        <path
           class="frame-lateral-wings-left-darkgray"
           style="display:inline;opacity:1;fill:#555555;fill-opacity:1;stroke:#555555;stroke-width:10;stroke-miterlimit:4;stroke-dasharray:none;stroke-opacity:1;filter:url(#frame-lateral-wings-left-filter-darkgray)"
           d="m 721.45611,579.27928 c 0.65512,-1.79654 12.56522,-40.83074 12.56522,-41.18137 0,-0.25036 -1.10987,-1.20153 -2.46665,-2.11393 -7.9867,-5.3714 -17.30549,-14.61087 -22.67312,-22.48049 -3.49872,-5.12934 -10.50317,-18.27141 -13.78648,-25.86677 -6.25057,-14.45946 -11.62303,-36.03468 -14.12578,-56.72737 -0.40745,-3.36764 -0.52904,-9.11137 -0.64228,-30.32198 -0.0768,-14.39199 -0.26085,-26.04107 -0.40877,-25.88674 -0.68574,0.7145 -5.10471,20.0815 -7.1503,31.33712 -3.26585,17.97005 -4.72293,32.96681 -4.73006,48.68113 0,10.88386 0.46484,17.05036 2.02222,26.54251 5.70474,34.77136 15.87508,61.14833 30.55393,79.24196 4.83091,5.9549 12.44034,13.30106 18.47747,17.83817 1.93421,1.45364 2.14589,1.53758 2.3646,0.93776 0,0 0,0 0,0"
           id="path36516" />
        <path
           class="frame-lateral-wings-left-lightgray"
           style="display:inline;opacity:1;fill:#aaaaaa;fill-opacity:1;stroke:#aaaaaa;stroke-width:3;stroke-miterlimit:4;stroke-dasharray:none;stroke-opacity:1;filter:url(#frame-lateral-wings-left-filter-lightgray)"
           d="m 721.45612,579.27928 c 0.65512,-1.79654 12.56522,-40.83074 12.56522,-41.18137 0,-0.25036 -1.10987,-1.20153 -2.46665,-2.11393 -7.9867,-5.3714 -17.30549,-14.61087 -22.67313,-22.48049 -3.49871,-5.12934 -10.50317,-18.27141 -13.78647,-25.86677 -6.25057,-14.45946 -11.62303,-36.03468 -14.12578,-56.72737 -0.40745,-3.36764 -0.52904,-9.11137 -0.64229,-30.32198 -0.0768,-14.39199 -0.26084,-26.04107 -0.40876,-25.88674 -0.68575,0.7145 -5.10471,20.0815 -7.1503,31.33712 -3.26586,17.97005 -4.72293,32.96681 -4.73006,48.68113 0,10.88386 0.46484,17.05036 2.02221,26.54251 5.70474,34.77136 15.87509,61.14833 30.55394,79.24196 4.83091,5.9549 12.44034,13.30106 18.47747,17.83817 1.93421,1.45364 2.14589,1.53758 2.3646,0.93776 0,0 0,0 0,0"
           id="path36518" />
        <path
           class="frame-lateral-wings-left-white"
           style="display:inline;fill:#ffffff;stroke-width:1.53359783"
           d="m 721.45604,579.27928 c 0.6552,-1.79653 12.56529,-40.83078 12.56529,-41.18133 0,-0.25044 -1.10989,-1.20153 -2.46665,-2.11392 -7.98676,-5.37152 -17.30598,-14.61091 -22.67361,-22.48052 -3.49869,-5.1293 -10.5027,-18.27137 -13.78602,-25.86678 -6.25058,-14.4596 -11.62306,-36.03476 -14.12583,-56.72741 -0.40744,-3.36773 -0.52896,-9.11147 -0.64227,-30.32203 -0.0765,-14.392 -0.26082,-26.04098 -0.40878,-25.88663 -0.6857,0.7144 -5.10468,20.08147 -7.15029,31.33705 -3.26577,17.96998 -4.7229,32.96685 -4.72999,48.68112 0,10.8838 0.46482,17.05027 2.02221,26.54254 5.70474,34.77131 15.87506,61.14838 30.55392,79.24193 4.83092,5.95488 12.44029,13.30106 18.47742,17.83819 1.93421,1.45361 2.14597,1.53758 2.3646,0.93779 0,0 0,0 0,0"
           id="path36520" />
      </g>
    </g>
  </g>
</svg>
