<?xml version="1.0" encoding="UTF-8" standalone="no"?>
<!-- Created with Inkscape (http://www.inkscape.org/) -->

<svg
   xmlns:dc="http://purl.org/dc/elements/1.1/"
   xmlns:cc="http://creativecommons.org/ns#"
   xmlns:rdf="http://www.w3.org/1999/02/22-rdf-syntax-ns#"
   xmlns:svg="http://www.w3.org/2000/svg"
   xmlns="http://www.w3.org/2000/svg"
   xmlns:sodipodi="http://sodipodi.sourceforge.net/DTD/sodipodi-0.dtd"
   xmlns:inkscape="http://www.inkscape.org/namespaces/inkscape"
   width="1280"
   height="400"
   viewBox="0 0 1280 400"
   version="1.1"
   id="svg44922"
   inkscape:version="0.92.3 (unknown)"
   sodipodi:docname="frame_shadow_clip.svg">
  <sodipodi:namedview
     id="base"
     pagecolor="#afafaf"
     bordercolor="#666666"
     borderopacity="1.0"
     inkscape:pageopacity="0"
     inkscape:pageshadow="2"
     inkscape:zoom="0.35"
     inkscape:cx="-487.72895"
     inkscape:cy="573.19861"
     inkscape:document-units="mm"
     inkscape:current-layer="svg44922"
     showgrid="false"
     units="px"
     inkscape:window-width="1920"
     inkscape:window-height="1029"
     inkscape:window-x="0"
     inkscape:window-y="0"
     inkscape:window-maximized="1" />
  <defs
     id="defs44916" />
  <metadata
     id="metadata44919">
    <rdf:RDF>
      <cc:Work
         rdf:about="">
        <dc:format>image/svg+xml</dc:format>
        <dc:type
           rdf:resource="http://purl.org/dc/dcmitype/StillImage" />
        <dc:title></dc:title>
      </cc:Work>
    </rdf:RDF>
  </metadata>
  <g
     id="layer1"
     inkscape:groupmode="layer"
     inkscape:label="Layer 1">
    <path
       id="central-frame-clip-arena"
       d="m 691.0269,103.0136 c 0.33056,-0.0277 3.06102,0.21899 5.05206,0.41216 23.98112,2.33365 38.82944,6.08064 38.85824,10.16523 0,3.34656 -10.01707,6.55584 -27.84747,8.92224 -17.76438,2.35765 -41.83488,3.68554 -66.94976,3.69536 0,0 0,5.3e-4 0,5.3e-4 -0.0469,0 -0.0928,-2.1e-4 -0.13984,-2.1e-4 -0.0469,0 -0.0928,2.1e-4 -0.13984,2.1e-4 0,0 0,-5.3e-4 0,-5.3e-4 -25.11499,-0.0107 -49.1855,-1.33771 -66.94987,-3.69536 -17.8304,-2.3664 -27.84747,-5.57568 -27.84747,-8.92224 0.0288,-4.08459 14.87701,-7.83158 38.85803,-10.16523 0,0 0,0 0,0 3.53963,-0.34336 9.41632,-0.85493 -0.0107,0.30229 -13.08875,1.61366 -20.75328,3.7663 -20.77845,6.0575 0,2.35552 8.11296,4.6145 22.55456,6.2801 14.40853,1.66187 33.93952,2.59659 54.31253,2.60086 20.37334,0 39.90432,-0.93899 54.31286,-2.60086 14.44117,-1.6656 22.55435,-3.92458 22.55413,-6.2801 -0.0256,-2.2912 -7.6897,-4.44384 -20.77845,-6.0575 -4.12406,-0.50634 -5.31894,-0.69312 -5.06187,-0.71445 0,0 0.001,0 0.001,0"
       style="color:#000000;clip-rule:nonzero;display:inline;overflow:visible;visibility:visible;opacity:1;isolation:auto;mix-blend-mode:normal;color-interpolation:sRGB;color-interpolation-filters:linearRGB;solid-color:#000000;solid-opacity:1;fill:#fffffe;fill-opacity:1;fill-rule:evenodd;stroke:none;stroke-width:0;stroke-linecap:butt;stroke-linejoin:miter;stroke-miterlimit:4;stroke-dasharray:none;stroke-dashoffset:0;stroke-opacity:1;marker:none;color-rendering:auto;image-rendering:auto;shape-rendering:auto;text-rendering:auto;enable-background:accumulate"
       inkscape:connector-curvature="0" />
    <path
       d="M518.34711 92.51314C537.53207 94.76075 549.32727 105.11794 556.97751 117.03485C556.97751 117.03485 539.72781 96.60882 519.49879 96.60882C519.49879 96.60882 499.2701 96.60882 499.2701 96.60882C499.2701 96.60882 50.574187 96.60843 50.574187 96.60843C50.574187 96.60843 50.574187 92.51314 50.574187 92.51314C50.574187 92.51314 518.34711 92.51314 518.34711 92.51314"
       style="stroke-width:1.23678106796;display:inline;fill:#ffffff"
       id="left-bottom-frame-clip" />
    <path
       id="right-bottom-frame-clip"
       style="stroke-width:1.23678106796;display:inline;fill:#ffffff"
       d="M758.85773 92.43777C739.67277 94.68538 727.87757 105.04257 720.22733 116.95948C720.22733 116.95948 737.47704 96.53345 757.70605 96.53345C757.70605 96.53345 777.93474 96.53345 777.93474 96.53345C777.93474 96.53345 1226.6307 96.53306 1226.6307 96.53306C1226.6307 96.53306 1226.6307 92.43777 1226.6307 92.43777C1226.6307 92.43777 758.85773 92.43777 758.85773 92.43777" />
    <path
       id="central-frame-clip-blade"
       d="m 637.32054,139.56534 c -1.56853,-1.09941 -3.01429,-12.21504 -3.88864,-29.89483 -0.65195,-13.18741 -0.86048,-24.24362 -0.78379,-41.5664 0.0555,-12.49408 0.11659,-16.05643 0.4255,-24.75755 0.71626,-20.17493 2.11989,-34.32128 3.72725,-37.56608 0.29035,-0.58581 0.59531,-0.9329 0.70933,-0.80704 0.0235,0.0256 0.0107,0.34315 -0.0384,0.70518 -0.43434,3.51712 -0.69717,16.60576 -0.77184,38.42741 -0.0907,26.54912 0.27094,48.52395 0.84907,51.59094 0,0 0.0661,0.35445 0.0661,0.35445 0,0 0.0768,-0.35445 0.0768,-0.35445 0.58614,-2.69014 0.95936,-25.01825 0.86518,-51.74283 -0.0768,-21.73515 -0.33824,-34.68886 -0.77291,-38.27552 -0.0437,-0.36203 -0.0608,-0.67926 -0.0373,-0.70518 0.1072,-0.11808 0.41162,0.20662 0.66592,0.7103 1.77088,3.50794 3.24096,19.3649 3.92352,42.32064 0.4144,13.9361 0.41429,34.23008 -1.1e-4,48.55328 -0.70208,24.26101 -2.37643,40.99221 -4.29397,42.90976 -0.18091,0.18091 -0.536,0.22901 -0.72288,0.0981 0,0 0.001,-1.8e-4 0.001,-1.8e-4"
       style="display:inline;fill:#ffffff;fill-opacity:1;stroke-width:0.47733417"
       inkscape:connector-curvature="0" />
  </g>
</svg>
