<?xml version="1.0" encoding="UTF-8" standalone="no"?>
<svg
   xmlns:dc="http://purl.org/dc/elements/1.1/"
   xmlns:cc="http://creativecommons.org/ns#"
   xmlns:rdf="http://www.w3.org/1999/02/22-rdf-syntax-ns#"
   xmlns:svg="http://www.w3.org/2000/svg"
   xmlns="http://www.w3.org/2000/svg"
   xmlns:sodipodi="http://sodipodi.sourceforge.net/DTD/sodipodi-0.dtd"
   xmlns:inkscape="http://www.inkscape.org/namespaces/inkscape"
   sodipodi:docname="frame_central_blade.svg"
   inkscape:version="0.92.3 (unknown)"
   id="frame-central-blade"
   version="1.1"
   viewBox="0 0 1280 720"
   height="720"
   width="1280">
  <sodipodi:namedview
     inkscape:window-maximized="1"
     inkscape:window-y="0"
     inkscape:window-x="0"
     inkscape:window-height="1029"
     inkscape:window-width="1920"
     fit-margin-bottom="0"
     fit-margin-right="0"
     fit-margin-left="0"
     fit-margin-top="0"
     units="px"
     showgrid="false"
     inkscape:current-layer="frame-central-blade"
     inkscape:document-units="mm"
     inkscape:cy="375.01566"
     inkscape:cx="440.43179"
     inkscape:zoom="0.69999999"
     inkscape:pageshadow="2"
     inkscape:pageopacity="0"
     borderopacity="1.0"
     bordercolor="#666666"
     pagecolor="#a1a1a1"
     id="base" />
  <defs
     id="defs34006">
    <filter
       inkscape:collect="always"
       style="color-interpolation-filters:sRGB"
       id="frame-central-blade-filter-lightgray"
       x="-0.2601051"
       width="1.5202101"
       y="-0.019338261"
       height="1.0386765">
      <feGaussianBlur
         inkscape:collect="always"
         stdDeviation="3.3881119"
         id="feGaussianBlur46344" />
    </filter>
    <filter
       inkscape:collect="always"
       style="color-interpolation-filters:sRGB"
       id="frame-central-blade-filter-darkgray"
       x="-0.69361365"
       width="2.3872273"
       y="-0.051568698"
       height="1.1031374">
      <feGaussianBlur
         inkscape:collect="always"
         stdDeviation="9.0349651"
         id="feGaussianBlur46348" />
    </filter>
    <filter
       inkscape:collect="always"
       style="color-interpolation-filters:sRGB"
       id="frame-central-blade-filter-black"
       x="-7.456347"
       width="15.912694"
       y="-0.55436349"
       height="2.108727">
      <feGaussianBlur
         inkscape:collect="always"
         stdDeviation="97.930297"
         id="feGaussianBlur46356" />
    </filter>
  </defs>
  <metadata
     id="metadata34009">
    <rdf:RDF>
      <cc:Work
         rdf:about="">
        <dc:format>image/svg+xml</dc:format>
        <dc:type
           rdf:resource="http://purl.org/dc/dcmitype/StillImage" />
        <dc:title></dc:title>
      </cc:Work>
    </rdf:RDF>
  </metadata>
  <g
     id="frame-central-blade-container">
    <path
       class="frame-central-arena-black"
       style="display:inline;opacity:1;fill:#000000;fill-opacity:1;stroke:#000000;stroke-width:20;stroke-miterlimit:4;stroke-dasharray:none;stroke-opacity:1;filter:url(#frame-central-blade-filter-black)"
       d="m 638.9943,522.98018 c -4.93725,-3.4606 -9.48805,-38.44914 -12.24023,-94.09961 -2.05212,-41.50987 -2.70852,-76.3114 -2.46711,-130.8381 0.17458,-39.32748 0.36699,-50.54064 1.33932,-77.92905 2.25458,-63.50442 6.67276,-108.03272 11.73223,-118.24634 0.91392,-1.84396 1.87384,-2.936498 2.23276,-2.540313 0.0738,0.08058 0.0336,1.080123 -0.12087,2.219663 -1.36719,11.0708 -2.19448,52.26978 -2.42951,120.95755 -0.28539,83.56837 0.85282,152.73829 2.6726,162.39221 0,0 0.20817,1.11571 0.20817,1.11571 0,0 0.24174,-1.11571 0.24174,-1.11571 1.84496,-8.4677 3.01977,-78.74964 2.7233,-162.87032 -0.24174,-68.41548 -1.06468,-109.18973 -2.43287,-120.47944 -0.13769,-1.13954 -0.1914,-2.138074 -0.11751,-2.219663 0.3374,-0.371679 1.29567,0.650358 2.09611,2.235783 5.57418,11.04193 10.20153,60.95471 12.35002,133.21221 1.3044,43.86653 1.30407,107.74565 -3.3e-4,152.83063 -2.20994,76.36612 -7.48026,129.03073 -13.5161,135.06657 -0.56944,0.56944 -1.68716,0.72087 -2.2754,0.3089 0,0 0.004,-6.8e-4 0.004,-6.8e-4"
       id="path10515-2"
       inkscape:connector-curvature="0" />
    <path
       class="frame-central-arena-darkgray"
       d="m 638.36874,521.26731 c -4.8967,-3.43219 -9.41012,-38.13332 -12.13969,-93.32666 -2.03526,-41.16891 -2.68627,-75.68456 -2.44685,-129.76337 0.17314,-39.00443 0.36397,-50.12548 1.32832,-77.28893 2.23607,-62.98277 6.61796,-107.1453 11.63587,-117.27503 0.90641,-1.82881 1.85844,-2.91238 2.21442,-2.51944 0.0732,0.0799 0.0333,1.07124 -0.11989,2.20143 -1.35596,10.97986 -2.17646,51.84041 -2.40956,119.96397 -0.28304,82.88192 0.84581,151.48367 2.65065,161.05829 0,0 0.20648,1.10654 0.20648,1.10654 0,0 0.23977,-1.10654 0.23977,-1.10654 1.82981,-8.39815 2.99496,-78.10277 2.70093,-161.53247 -0.23978,-67.8535 -1.05593,-108.29282 -2.41289,-119.48979 -0.13652,-1.13019 -0.18981,-2.12052 -0.11656,-2.20143 0.33464,-0.36862 1.28503,0.64501 2.07889,2.21741 5.52839,10.95123 10.11773,60.45401 12.24857,132.11798 1.29369,43.5062 1.29336,106.8606 -3.3e-4,151.57523 -2.19178,75.73884 -7.41881,127.97086 -13.40507,133.95712 -0.56476,0.56476 -1.6733,0.71494 -2.25671,0.30637 0,0 0,-3.4e-4 0,-3.4e-4"
       style="display:inline;opacity:1;fill:#555555;fill-opacity:1;stroke:#555555;stroke-width:10;stroke-miterlimit:4;stroke-dasharray:none;stroke-opacity:1;filter:url(#frame-central-blade-filter-darkgray)"
       id="path4311"
       inkscape:connector-curvature="0" />
    <path
       class="frame-central-arena-lightgray"
       d="m 638.36874,521.26731 c -4.8967,-3.43219 -9.41012,-38.13332 -12.13969,-93.32666 -2.03526,-41.16891 -2.68627,-75.68456 -2.44685,-129.76337 0.17314,-39.00443 0.36397,-50.12548 1.32832,-77.28893 2.23607,-62.98277 6.61796,-107.1453 11.63587,-117.27503 0.90641,-1.82881 1.85844,-2.91238 2.21442,-2.51944 0.0732,0.0799 0.0333,1.07124 -0.11989,2.20143 -1.35596,10.97986 -2.17646,51.84041 -2.40956,119.96397 -0.28304,82.88192 0.84581,151.48367 2.65065,161.05829 0,0 0.20648,1.10654 0.20648,1.10654 0,0 0.23977,-1.10654 0.23977,-1.10654 1.82981,-8.39815 2.99496,-78.10277 2.70093,-161.53247 -0.23978,-67.8535 -1.05593,-108.29282 -2.41289,-119.48979 -0.13652,-1.13019 -0.18981,-2.12052 -0.11656,-2.20143 0.33464,-0.36862 1.28503,0.64501 2.07889,2.21741 5.52839,10.95123 10.11773,60.45401 12.24857,132.11798 1.29369,43.5062 1.29336,106.8606 -3.3e-4,151.57523 -2.19178,75.73884 -7.41881,127.97086 -13.40507,133.95712 -0.56476,0.56476 -1.6733,0.71494 -2.25671,0.30637 0,0 0,-3.4e-4 0,-3.4e-4"
       style="display:inline;opacity:1;fill:#aaaaaa;fill-opacity:1;stroke:#aaaaaa;stroke-width:3;stroke-miterlimit:4;stroke-dasharray:none;stroke-opacity:1;filter:url(#frame-central-blade-filter-black)"
       id="path4313"
       inkscape:connector-curvature="0" />
    <path
       class="frame-central-arena-white"
       id="path4203"
       d="m 638.36861,521.26725 c -4.8967,-3.4322 -9.41012,-38.13331 -12.13969,-93.32667 -2.03527,-41.16889 -2.68628,-75.68455 -2.44685,-129.76336 0.17321,-39.00442 0.364,-50.12548 1.32832,-77.28893 2.23606,-62.98277 6.61795,-107.1453 11.63586,-117.27503 0.90641,-1.82882 1.85845,-2.91239 2.21443,-2.51945 0.0731,0.0802 0.0329,1.07123 -0.11989,2.20143 -1.35596,10.97987 -2.17647,51.84042 -2.40955,119.96398 -0.28305,82.88193 0.84575,151.48368 2.65064,161.05828 0,0 0.20647,1.10652 0.20647,1.10652 0,0 0.23978,-1.10652 0.23978,-1.10652 1.82981,-8.39814 2.99495,-78.10277 2.70092,-161.53246 -0.23977,-67.85351 -1.0559,-108.29282 -2.41288,-119.4898 -0.13652,-1.13023 -0.18985,-2.12051 -0.11683,-2.20143 0.33464,-0.36862 1.28504,0.64505 2.07889,2.21742 5.5284,10.95122 10.11773,60.45401 12.24857,132.11798 1.2937,43.5062 1.29337,106.86058 -3.3e-4,151.57525 -2.19177,75.73882 -7.41881,127.97084 -13.40507,133.9571 -0.5647,0.5647 -1.67329,0.71491 -2.25671,0.30629 0,0 0.004,-6e-4 0.004,-6e-4"
       style="display:inline;fill:#ffffff;fill-opacity:1;stroke-width:1.4901576"
       inkscape:connector-curvature="0" />
  </g>
</svg>
