<?xml version="1.0" encoding="UTF-8" standalone="no"?>
<!-- Created with Inkscape (http://www.inkscape.org/) -->

<svg
   xmlns:svg="http://www.w3.org/2000/svg"
   xmlns="http://www.w3.org/2000/svg"
   width="1280"
   height="400"
   viewBox="0 0 1280 400"
   version="1.1"
   id="frame-shadow-clip"
   >
  <defs
     id="defs44916" />
  <metadata
     id="metadata44919">
    </metadata>
  <g
     id="frame-shadow-clip-container">
    <path
       style="stroke-linejoin:miter;text-rendering:auto;color-rendering:auto;fill-opacity:1;color:#000000;shape-rendering:auto;solid-color:#000000;stroke:none;stroke-linecap:butt;marker:none;stroke-width:0.0;color-interpolation-filters:linearRGB;fill:#fffffe;solid-opacity:1;fill-rule:evenodd;mix-blend-mode:normal;stroke-miterlimit:4;opacity:1;visibility:visible;clip-rule:nonzero;image-rendering:auto;overflow:visible;stroke-opacity:1;isolation:auto;stroke-dashoffset:0;stroke-dasharray:none;enable-background:accumulate;display:inline;color-interpolation:sRGB"
       d="M691.02683 103.0136C691.35739 102.9859 694.08785 103.23259 696.07889 103.42576C720.06001 105.75941 734.90832 109.5064 734.93713 113.59099C734.93713 116.93755 724.92006 120.14683 707.08965 122.51323C689.32528 124.87088 665.25477 126.19877 640.1399 126.20859C640.1399 126.20859 640.1399 126.20912 640.1399 126.20912C640.093 126.20912 640.0471 126.20891 640.00005 126.20891C639.95315 126.20891 639.90725 126.20912 639.86021 126.20912C639.86021 126.20912 639.86021 126.20859 639.86021 126.20859C614.74522 126.19789 590.67471 124.87088 572.91034 122.51323C555.07994 120.14683 545.06287 116.93755 545.06287 113.59099C545.09167 109.5064 559.93988 105.75941 583.9209 103.42576C583.9209 103.42576 583.9209 103.42576 583.9209 103.42576C587.46053 103.0824 593.33722 102.57083 583.9102 103.72805C570.82145 105.34171 563.15692 107.49435 563.13175 109.78555C563.13175 112.14107 571.24471 114.40005 585.68631 116.06565C600.09484 117.72752 619.62583 118.66224 639.99884 118.66651C660.37218 118.66651 679.90316 117.72752 694.3117 116.06565C708.75287 114.40005 716.86605 112.14107 716.86583 109.78555C716.84023 107.49435 709.17613 105.34171 696.08738 103.72805C691.96332 103.22171 690.76844 103.03493 691.02551 103.0136C691.02551 103.0136 691.02651 103.0136 691.02651 103.0136"
       id="central-frame-clip-arena" />
    <path
       id="left-bottom-frame-clip"
       style="stroke-width:1.74907263359;display:inline;fill:#ffffff"
       d="M517.77292 92.51314C536.95788 94.76075 548.75308 105.11794 556.40332 117.03485C556.40332 117.03485 539.15362 96.60882 518.9246 96.60882C518.9246 96.60882 498.69591 96.60882 498.69591 96.60882C498.69591 96.60882 50.0 96.60843 50.0 96.60843C50.0 96.60843 50.0 92.51314 50.0 92.51314C50.0 92.51314 517.77292 92.51314 517.77292 92.51314" />
    <path
       d="M762.22737 92.43777C743.04243 94.68538 731.24723 105.04257 723.597 116.95948C723.597 116.95948 740.8467 96.53345 761.07569 96.53345C761.07569 96.53345 781.30437 96.53345 781.30437 96.53345C781.30437 96.53345 1230.0 96.53306 1230.0 96.53306C1230.0 96.53306 1230.0 92.43777 1230.0 92.43777C1230.0 92.43777 762.22737 92.43777 762.22737 92.43777"
       style="stroke-width:1.74907263359;display:inline;fill:#ffffff"
       id="right-bottom-frame-clip" />
    <path
       style="stroke-width:0.675052456998;fill-opacity:1;display:inline;fill:#ffffff"
       d="M639.6805 139.56534C638.11197 138.46593 636.66621 127.3503 635.79186 109.67051C635.13991 96.4831 634.93138 85.42689 635.00807 68.10411C635.06357 55.61003 635.12466 52.04768 635.43357 43.34656C636.14983 23.17163 637.55346 9.02528 639.16082 5.78048C639.45117 5.19467 639.75613 4.84758 639.87015 4.97344C639.89365 4.99904 639.88085 5.31659 639.83175 5.67862C639.39741 9.19574 639.13458 22.28438 639.05991 44.10603C638.96921 70.65515 639.33085 92.62998 639.90898 95.69697C639.90898 95.69697 639.97508 96.05142 639.97508 96.05142C639.97508 96.05142 640.05188 95.69697 640.05188 95.69697C640.63802 93.00683 641.01124 70.67872 640.91706 43.95414C640.84026 22.21899 640.57882 9.26528 640.14415 5.67862C640.10045 5.31659 640.08335 4.99936 640.10685 4.97344C640.21405 4.85536 640.51847 5.18006 640.77277 5.68374C642.54365 9.19168 644.01373 25.04864 644.69629 48.00438C645.11069 61.94048 645.11058 82.23446 644.69618 96.55766C643.9941 120.81867 642.31975 137.54987 640.40221 139.46742C640.2213 139.64833 639.86621 139.69643 639.67933 139.56552C639.67933 139.56552 639.68033 139.56534 639.68033 139.56534"
       id="central-frame-clip-blade" />
  </g>
</svg>
