<?xml version="1.0" encoding="UTF-8" standalone="no"?>
<svg
   xmlns:svg="http://www.w3.org/2000/svg"
   xmlns="http://www.w3.org/2000/svg"
   width="1280"
   height="720"
   viewBox="0 0 1280 720"
   version="1.1"
   id="frame-central-arena"
   >
  <defs
     id="defs36880">
    <filter
       style="color-interpolation-filters:sRGB"
       id="frame-central-arena-start-filter-darkgray"
       x="-0.084043867"
       width="1.1680877"
       y="-0.11192211"
       height="1.2238442">
      <feGaussianBlur
         stdDeviation="4.2341356"
         id="feGaussianBlur50946" />
    </filter>
    <filter
       style="color-interpolation-filters:sRGB"
       id="frame-central-arena-start-filter-lightgray"
       x="-0.03151645"
       width="1.0630329"
       y="-0.041970791"
       height="1.0839416">
      <feGaussianBlur
         stdDeviation="1.5878008"
         id="feGaussianBlur50954" />
    </filter>
    <filter
       style="color-interpolation-filters:sRGB"
       id="frame-central-arena-start-filter-black"
       x="-0.42021933"
       width="1.8404387"
       y="-0.55961055"
       height="2.1192211">
      <feGaussianBlur
         stdDeviation="21.170678"
         id="feGaussianBlur50958" />
    </filter>
  </defs>
  <metadata
     id="metadata36883">
    </metadata>
  <g
     style="display:inline"
     id="startLayer">
    <g
       id="frame-central-arena-start">
      <path
         id="path1244"
         d="m 580.33871,581.15429 c -1.42091,7.41349 -2.06895,28.89911 7.36907,42.34529 -2.62095,-12.70561 -3.29704,-24.86361 1.55467,-35.97816 3.3291,-7.62648 10.33767,-14.34347 17.24983,-18.04865 9.98031,-5.34981 21.88379,-6.69722 33.48795,-6.69721 11.60414,10e-6 23.50766,1.34741 33.48795,6.69721 6.91217,3.70518 13.91877,10.42217 17.24788,18.04865 4.85171,11.11455 4.17561,23.27255 1.55467,35.97816 9.43801,-13.44618 8.79193,-34.9318 7.37102,-42.34529 -2.46659,-12.86929 -9.97332,-26.08671 -20.21074,-34.20083 -10.74037,-8.51275 -24.56713,-14.2485 -39.45176,-14.2485 -14.88462,0 -28.70942,5.73575 -39.4498,14.2485 -10.23742,8.11412 -17.74414,21.33154 -20.21074,34.20083 z"
         style="color:#000000;clip-rule:nonzero;display:inline;overflow:visible;visibility:visible;opacity:1;isolation:auto;mix-blend-mode:normal;color-interpolation:sRGB;color-interpolation-filters:linearRGB;solid-color:#000000;solid-opacity:1;fill:#000000;fill-opacity:1;fill-rule:evenodd;stroke:#000000;stroke-width:20;stroke-linecap:butt;stroke-linejoin:miter;stroke-miterlimit:4;stroke-dasharray:none;stroke-dashoffset:0;stroke-opacity:1;marker:none;filter:url(#frame-central-arena-start-filter-black);color-rendering:auto;image-rendering:auto;shape-rendering:auto;text-rendering:auto;enable-background:accumulate"
         class="frame-central-arena-black" />
      <path
         id="path2250"
         d="m 580.33871,581.1543 c -1.42091,7.41348 -2.06895,28.8991 7.36907,42.34528 -2.62095,-12.7056 -3.29704,-24.86361 1.55467,-35.97816 3.3291,-7.62648 10.33767,-14.34347 17.24983,-18.04865 9.98031,-5.34981 21.88379,-6.69722 33.48795,-6.69721 11.60414,10e-6 23.50766,1.34741 33.48795,6.69721 6.91217,3.70518 13.91877,10.42217 17.24788,18.04865 4.85171,11.11455 4.17561,23.27256 1.55467,35.97816 9.43801,-13.44618 8.79192,-34.9318 7.37102,-42.34528 -2.46659,-12.8693 -9.97332,-26.08672 -20.21074,-34.20084 -10.74037,-8.51275 -24.56713,-14.2485 -39.45176,-14.2485 -14.88462,0 -28.70942,5.73575 -39.4498,14.2485 -10.23742,8.11412 -17.74414,21.33154 -20.21074,34.20084 z"
         style="color:#000000;clip-rule:nonzero;display:inline;overflow:visible;visibility:visible;opacity:1;isolation:auto;mix-blend-mode:normal;color-interpolation:sRGB;color-interpolation-filters:linearRGB;solid-color:#000000;solid-opacity:1;fill:#555554;fill-opacity:1;fill-rule:evenodd;stroke:#555554;stroke-width:10;stroke-linecap:butt;stroke-linejoin:miter;stroke-miterlimit:4;stroke-dasharray:none;stroke-dashoffset:0;stroke-opacity:1;marker:none;filter:url(#frame-central-arena-start-filter-darkgray);color-rendering:auto;image-rendering:auto;shape-rendering:auto;text-rendering:auto;enable-background:accumulate"
         class="frame-central-arena-darkgray" />
      <path
         id="path1246"
         d="m 580.33871,581.1543 c -1.42091,7.41348 -2.06895,28.8991 7.36907,42.34528 -2.62095,-12.7056 -3.29704,-24.86361 1.55467,-35.97816 3.3291,-7.62648 10.33767,-14.34347 17.24983,-18.04865 9.98031,-5.34981 21.88379,-6.69722 33.48795,-6.69721 11.60414,10e-6 23.50766,1.34741 33.48795,6.69721 6.91217,3.70518 13.91877,10.42217 17.24788,18.04865 4.85171,11.11455 4.17561,23.27256 1.55467,35.97816 9.43801,-13.44618 9.31477,-32.20389 7.37102,-42.34528 -1.94375,-10.14139 -9.97332,-26.08672 -20.21074,-34.20084 -10.74037,-8.51275 -24.56713,-14.2485 -39.45176,-14.2485 -14.88462,0 -28.70942,5.73575 -39.4498,14.2485 -10.23742,8.11412 -17.74414,21.33154 -20.21074,34.20084 z"
         style="color:#000000;clip-rule:nonzero;display:inline;overflow:visible;visibility:visible;opacity:1;isolation:auto;mix-blend-mode:normal;color-interpolation:sRGB;color-interpolation-filters:linearRGB;solid-color:#000000;solid-opacity:1;fill:#aaaaa9;fill-opacity:1;fill-rule:evenodd;stroke:#aaaaa9;stroke-width:3;stroke-linecap:butt;stroke-linejoin:miter;stroke-miterlimit:4;stroke-dasharray:none;stroke-dashoffset:0;stroke-opacity:1;marker:none;filter:url(#frame-central-arena-start-filter-lightgray);color-rendering:auto;image-rendering:auto;shape-rendering:auto;text-rendering:auto;enable-background:accumulate"
         class="frame-central-arena-lightgray" />
      <path
         style="color:#000000;clip-rule:nonzero;display:inline;overflow:visible;visibility:visible;opacity:1;isolation:auto;mix-blend-mode:normal;color-interpolation:sRGB;color-interpolation-filters:linearRGB;solid-color:#000000;solid-opacity:1;fill:#fffffe;fill-opacity:1;fill-rule:evenodd;stroke:none;stroke-width:0.083;stroke-linecap:butt;stroke-linejoin:miter;stroke-miterlimit:4;stroke-dasharray:none;stroke-dashoffset:0;stroke-opacity:1;marker:none;color-rendering:auto;image-rendering:auto;shape-rendering:auto;text-rendering:auto;enable-background:accumulate"
         d="m 580.33871,581.1543 c -1.42091,7.41348 -2.06895,28.8991 7.36907,42.34528 -2.62095,-12.7056 -3.29704,-24.86361 1.55467,-35.97816 3.3291,-7.62648 10.33767,-14.34347 17.24983,-18.04865 9.98031,-5.34981 21.88379,-6.69722 33.48795,-6.69721 11.60414,10e-6 23.50766,1.34741 33.48795,6.69721 6.91217,3.70518 13.91877,10.42217 17.24788,18.04865 4.85171,11.11455 4.17561,23.27256 1.55467,35.97816 9.43801,-13.44618 8.79192,-34.9318 7.37102,-42.34528 -2.46659,-12.8693 -9.97332,-26.08672 -20.21074,-34.20084 -10.74037,-8.51275 -24.56713,-14.2485 -39.45176,-14.2485 -14.88462,0 -28.70942,5.73575 -39.4498,14.2485 -10.23742,8.11412 -17.74414,21.33154 -20.21074,34.20084 z"
         id="path1248"
         class="frame-central-arena-white" />
    </g>
  </g>
  <g
     id="endLayer">
    <g
       id="frame-central-arena-end"
       style="display:none">
      <path
         class="frame-central-arena-black"
         style="color:#000000;clip-rule:nonzero;display:inline;overflow:visible;visibility:visible;opacity:1;isolation:auto;mix-blend-mode:normal;color-interpolation:sRGB;color-interpolation-filters:linearRGB;solid-color:#000000;solid-opacity:1;fill:#000000;fill-opacity:1;fill-rule:evenodd;stroke:#000000;stroke-width:28.28427124;stroke-linecap:butt;stroke-linejoin:miter;stroke-miterlimit:4;stroke-dasharray:none;stroke-dashoffset:0;stroke-opacity:1;marker:none;color-rendering:auto;image-rendering:auto;shape-rendering:auto;text-rendering:auto;enable-background:accumulate"
         d="m 707.097,548.59666 c 17.8302,2.36634 28.02033,5.57972 27.84738,8.92177 -0.28837,5.57241 -25.44787,9.14106 -43.90973,10.57802 12.24456,-1.57161 25.86462,-3.68511 25.86499,-6.77142 2.9e-4,-2.35256 -8.13837,-4.6156 -22.57986,-6.28118 -14.23194,-1.64142 -34.20385,-2.59567 -54.31977,-2.59568 -20.11593,-3e-5 -40.08785,0.95426 -54.31979,2.59568 -14.44149,1.66558 -22.58015,3.92862 -22.57986,6.28118 3.7e-4,3.08631 13.62043,5.19981 25.86499,6.77142 -18.46186,-1.43696 -43.62136,-5.00561 -43.90973,-10.57802 -0.17295,-3.34205 10.01718,-6.55543 27.84739,-8.92177 17.41496,-2.31126 41.63075,-3.62457 67.09797,-3.62457 25.4672,0 49.68107,1.31331 67.09602,3.62457 z"
         id="path52211"
         />
      <path
         id="path52209"
         d="m 707.097,548.58911 c 17.8302,2.36635 28.02033,5.57974 27.84738,8.92178 -0.28837,5.57241 -25.44787,9.14107 -43.90973,10.57803 12.24456,-1.57163 25.86462,-3.68512 25.86499,-6.77143 2.9e-4,-2.35256 -8.13837,-4.61559 -22.57986,-6.28119 -14.23194,-1.6414 -34.20385,-2.59565 -54.31977,-2.59568 -20.11593,-2e-5 -40.08785,0.95428 -54.31979,2.59568 -14.44149,1.6656 -22.58015,3.92863 -22.57986,6.28119 3.7e-4,3.08631 13.62043,5.1998 25.86499,6.77143 -18.46186,-1.43696 -43.62136,-5.00562 -43.90973,-10.57803 -0.17295,-3.34204 10.01718,-6.55543 27.84739,-8.92178 17.41496,-2.31124 41.63075,-3.62455 67.09797,-3.62455 25.4672,0 49.68107,1.31331 67.09602,3.62455 z"
         style="color:#000000;clip-rule:nonzero;display:inline;overflow:visible;visibility:visible;opacity:1;isolation:auto;mix-blend-mode:normal;color-interpolation:sRGB;color-interpolation-filters:linearRGB;solid-color:#000000;solid-opacity:1;fill:#555555;fill-opacity:1;fill-rule:evenodd;stroke:#555555;stroke-width:14.14213562;stroke-linecap:butt;stroke-linejoin:miter;stroke-miterlimit:4;stroke-dasharray:none;stroke-dashoffset:0;stroke-opacity:1;marker:none;color-rendering:auto;image-rendering:auto;shape-rendering:auto;text-rendering:auto;enable-background:accumulate"
         class="frame-central-arena-darkgray"
         />
      <path
         class="frame-central-arena-lightgray"
         style="color:#000000;clip-rule:nonzero;display:inline;overflow:visible;visibility:visible;opacity:1;isolation:auto;mix-blend-mode:normal;color-interpolation:sRGB;color-interpolation-filters:linearRGB;solid-color:#000000;solid-opacity:1;fill:#aaaaaa;fill-opacity:1;fill-rule:evenodd;stroke:#aaaaaa;stroke-width:4.2426405;stroke-linecap:butt;stroke-linejoin:miter;stroke-miterlimit:4;stroke-dasharray:none;stroke-dashoffset:0;stroke-opacity:1;marker:none;color-rendering:auto;image-rendering:auto;shape-rendering:auto;text-rendering:auto;enable-background:accumulate"
         d="m 707.097,548.58384 c 17.8302,2.36635 28.02033,5.57972 27.84738,8.92178 -0.28837,5.57241 -25.44787,9.14105 -43.90973,10.57801 12.24456,-1.57161 25.86462,-3.68511 25.86499,-6.77141 2.9e-4,-2.35257 -8.13837,-4.61561 -22.57986,-6.2812 -14.23194,-1.6414 -34.20385,-2.59565 -54.31977,-2.59568 -20.11593,-10e-6 -40.08785,0.95428 -54.31979,2.59568 -14.44149,1.66559 -22.58015,3.92863 -22.57986,6.2812 3.7e-4,3.0863 13.62043,5.1998 25.86499,6.77141 -18.46186,-1.43696 -43.62136,-5.0056 -43.90973,-10.57801 -0.17295,-3.34206 10.01718,-6.55543 27.84739,-8.92178 17.41496,-2.31125 41.63075,-3.62456 67.09797,-3.62456 25.4672,0 49.68107,1.31331 67.09602,3.62456 z"
         id="path52207"
         />
      <path
         id="path1204"
         d="m 707.097,548.58158 c 17.8302,2.36635 28.02033,5.57972 27.84738,8.92178 -0.28837,5.57241 -25.44787,9.14105 -43.90973,10.57801 12.24456,-1.57161 25.86462,-3.68511 25.86499,-6.77142 2.9e-4,-2.35256 -8.13837,-4.6156 -22.57986,-6.28118 -14.23194,-1.64142 -34.20385,-2.59567 -54.31977,-2.59569 -20.11593,-10e-6 -40.08785,0.95427 -54.31979,2.59569 -14.44149,1.66558 -22.58015,3.92862 -22.57986,6.28118 3.7e-4,3.08631 13.62043,5.19981 25.86499,6.77142 -18.46186,-1.43696 -43.62136,-5.0056 -43.90973,-10.57801 -0.17295,-3.34206 10.01718,-6.55543 27.84739,-8.92178 17.41496,-2.31126 41.63075,-3.62457 67.09797,-3.62457 25.4672,0 49.68107,1.31331 67.09602,3.62457 z"
         style="color:#000000;clip-rule:nonzero;display:inline;overflow:visible;visibility:visible;opacity:1;isolation:auto;mix-blend-mode:normal;color-interpolation:sRGB;color-interpolation-filters:linearRGB;solid-color:#000000;solid-opacity:1;fill:#fffffe;fill-opacity:1;fill-rule:evenodd;stroke:none;stroke-width:0.04242642;stroke-linecap:butt;stroke-linejoin:miter;stroke-miterlimit:4;stroke-dasharray:none;stroke-dashoffset:0;stroke-opacity:1;marker:none;color-rendering:auto;image-rendering:auto;shape-rendering:auto;text-rendering:auto;enable-background:accumulate"
         class="frame-central-arena-white"
         />
    </g>
  </g>
</svg>
