<?xml version="1.0" encoding="UTF-8" standalone="no"?>
<svg
   xmlns:dc="http://purl.org/dc/elements/1.1/"
   xmlns:cc="http://creativecommons.org/ns#"
   xmlns:rdf="http://www.w3.org/1999/02/22-rdf-syntax-ns#"
   xmlns:svg="http://www.w3.org/2000/svg"
   xmlns="http://www.w3.org/2000/svg"
   xmlns:sodipodi="http://sodipodi.sourceforge.net/DTD/sodipodi-0.dtd"
   xmlns:inkscape="http://www.inkscape.org/namespaces/inkscape"
   width="1280"
   height="390.3205"
   viewBox="0 0 338.66666 103.2723"
   version="1.1"
   id="wings"
   inkscape:version="0.92.3 (unknown)"
   sodipodi:docname="wings.svg">
  <defs
     id="defs34602">
    <filter
       inkscape:collect="always"
       style="color-interpolation-filters:sRGB"
       id="filter35304"
       x="-1.0577044"
       width="3.1154089"
       y="-0.45225909"
       height="1.9045182">
      <feGaussianBlur
         inkscape:collect="always"
         stdDeviation="26.499551"
         id="feGaussianBlur35306" />
    </filter>
    <filter
       inkscape:collect="always"
       style="color-interpolation-filters:sRGB"
       id="filter35103"
       x="-0.53085548"
       width="2.0617108"
       y="-0.2269861"
       height="1.4539722">
      <feGaussianBlur
         inkscape:collect="always"
         stdDeviation="13.299964"
         id="feGaussianBlur35105" />
    </filter>
    <filter
       inkscape:collect="always"
       style="color-interpolation-filters:sRGB"
       id="filter35218"
       x="-0.19431312"
       width="1.3886263"
       y="-0.083085477"
       height="1.166171">
      <feGaussianBlur
         inkscape:collect="always"
         stdDeviation="4.8682887"
         id="feGaussianBlur35220" />
    </filter>
  </defs>
  <sodipodi:namedview
     id="base"
     pagecolor="#919191"
     bordercolor="#666666"
     borderopacity="1.0"
     inkscape:pageopacity="0"
     inkscape:pageshadow="2"
     inkscape:zoom="0.24748737"
     inkscape:cx="-1072.5674"
     inkscape:cy="-14.181656"
     inkscape:document-units="mm"
     inkscape:current-layer="g3256"
     showgrid="false"
     units="px"
     fit-margin-top="0"
     fit-margin-left="0"
     fit-margin-right="0"
     fit-margin-bottom="0"
     inkscape:window-width="1920"
     inkscape:window-height="1029"
     inkscape:window-x="0"
     inkscape:window-y="0"
     inkscape:window-maximized="1" />
  <metadata
     id="metadata34605">
    <rdf:RDF>
      <cc:Work
         rdf:about="">
        <dc:format>image/svg+xml</dc:format>
        <dc:type
           rdf:resource="http://purl.org/dc/dcmitype/StillImage" />
        <dc:title></dc:title>
      </cc:Work>
    </rdf:RDF>
  </metadata>
  <g
     inkscape:label="Layer 1"
     inkscape:groupmode="layer"
     id="wings2"
     transform="translate(-142.67759,-26.202822)">
    <g
       transform="matrix(0.27524051,0,0,0.27524051,667.51541,450.12644)"
       id="g3607"
       style="display:inline">
      <g
         id="g3256">
        <g
           id="g36618"
           transform="translate(457.74998)">
          <g
             id="wing-left"
             style="display:inline"
             transform="matrix(1.0816295,0,0,1.4363918,442.72041,-445.32521)">
            <path
               id="logo-left-side-black"
               transform="matrix(0.97526166,0,0,0.97526166,17.142111,596.66991)"
               d="m -2169.8636,-1189.3728 c -0.597,-1.2328 -11.4504,-28.0184 -11.4504,-28.259 0,-0.1718 1.0114,-0.8245 2.2478,-1.4506 7.2781,-3.6859 15.7701,-10.0261 20.6615,-15.4263 3.1883,-3.5198 9.5713,-12.538 12.5633,-17.75 5.696,-9.9222 10.5918,-24.7273 12.8725,-38.9268 0.3713,-2.3109 0.4821,-6.2523 0.5853,-20.8072 0.07,-9.8759 0.2377,-17.8696 0.3725,-17.7637 0.6249,0.4903 4.6518,13.7801 6.5159,21.5038 2.9761,12.3312 4.3039,22.6221 4.3104,33.4054 0,7.4686 -0.4236,11.7001 -1.8428,18.2137 -5.1986,23.8604 -14.4666,41.9605 -27.8431,54.3765 -4.4023,4.0863 -11.3366,9.1273 -16.8381,12.2407 -1.7626,0.9975 -1.9555,1.0551 -2.1548,0.6435 z"
               style="display:inline;fill:#000000;stroke:#000000;stroke-width:18.75;stroke-miterlimit:4;stroke-dasharray:none;stroke-opacity:1;filter:url(#filter35304)"
               inkscape:connector-curvature="0" />
            <path
               id="logo-left-side-darkgray"
               transform="matrix(0.97526166,0,0,0.97526166,16.188016,596.66991)"
               d="m -2168.8853,-1189.3728 c -0.597,-1.2328 -11.4504,-28.0184 -11.4504,-28.259 0,-0.1718 1.0114,-0.8245 2.2478,-1.4506 7.2781,-3.6859 15.7701,-10.0261 20.6615,-15.4263 3.1883,-3.5198 9.5713,-12.538 12.5633,-17.75 5.696,-9.9222 10.5918,-24.7273 12.8725,-38.9268 0.3713,-2.3109 0.4821,-6.2523 0.5853,-20.8072 0.07,-9.8759 0.2377,-17.8696 0.3725,-17.7637 0.6249,0.4903 4.6518,13.7801 6.5159,21.5038 2.9761,12.3312 4.3039,22.6221 4.3104,33.4054 0,7.4686 -0.4236,11.7001 -1.8428,18.2137 -5.1986,23.8604 -14.4666,41.9605 -27.8431,54.3765 -4.4023,4.0863 -11.3366,9.1273 -16.8381,12.2407 -1.7626,0.9975 -1.9555,1.0551 -2.1548,0.6435 v 0"
               style="display:inline;opacity:1;fill:#555555;fill-opacity:1;stroke:#555555;stroke-width:9.375;stroke-miterlimit:4;stroke-dasharray:none;stroke-opacity:1;filter:url(#filter35103)"
               inkscape:connector-curvature="0" />
            <path
               inkscape:connector-curvature="0"
               id="logo-left-side-lightgray"
               transform="matrix(0.97526166,0,0,0.97526166,16.665108,596.66991)"
               d="m -2169.3745,-1189.3728 c -0.597,-1.2328 -11.4504,-28.0184 -11.4504,-28.259 0,-0.1718 1.0114,-0.8245 2.2478,-1.4506 7.2781,-3.6859 15.7701,-10.0261 20.6615,-15.4263 3.1883,-3.5198 9.5713,-12.538 12.5633,-17.75 5.696,-9.9222 10.5918,-24.7273 12.8725,-38.9268 0.3713,-2.3109 0.4821,-6.2523 0.5853,-20.8072 0.07,-9.8759 0.2377,-17.8696 0.3725,-17.7637 0.6249,0.4903 4.6518,13.7801 6.5159,21.5038 2.9761,12.3312 4.3039,22.6221 4.3104,33.4054 0,7.4686 -0.4236,11.7001 -1.8428,18.2137 -5.1986,23.8604 -14.4666,41.9605 -27.8431,54.3765 -4.4023,4.0863 -11.3366,9.1273 -16.8381,12.2407 -1.7626,0.9975 -1.9555,1.0551 -2.1548,0.6435 v 0"
               style="display:inline;opacity:1;fill:#aaaaaa;fill-opacity:1;stroke:#aaaaaa;stroke-width:4.6875;stroke-miterlimit:4;stroke-dasharray:none;stroke-opacity:1;filter:url(#filter35218)" />
            <path
               inkscape:connector-curvature="0"
               id="logo-left-side-white"
               d="m -2099.0426,-563.27978 c -0.5823,-1.2023 -11.1672,-27.3253 -11.1672,-27.5599 0,-0.1676 0.9864,-0.8041 2.1922,-1.4147 7.0981,-3.5948 15.3804,-9.7781 20.1508,-15.0447 3.1094,-3.4327 9.3341,-12.2278 12.2521,-17.3109 5.5551,-9.67684 10.3298,-24.11564 12.5541,-37.96384 0.3621,-2.2538 0.4701,-6.0977 0.5708,-20.2925 0.068,-9.6316 0.2318,-17.42748 0.3633,-17.32418 0.6094,0.4781 4.5367,13.43918 6.3547,20.97178 2.9024,12.0261 4.1974,22.0625 4.2037,32.579 0,7.2838 -0.4131,11.4106 -1.7972,17.76314 -5.07,23.2701 -14.1087,40.9225 -27.1543,53.0313 -4.2934,3.9852 -11.0561,8.9015 -16.4215,11.9379 -1.719,0.9728 -1.9072,1.029 -2.1015,0.6276 z"
               style="display:inline;fill:#ffffff;stroke-width:0.81987774" />
          </g>
          <g
             transform="matrix(-1.0816295,0,0,1.4363918,-3941.4483,-445.35097)"
             style="display:inline"
             id="wing-right">
            <path
               inkscape:connector-curvature="0"
               style="display:inline;fill:#000000;stroke:#000000;stroke-width:18.75;stroke-miterlimit:4;stroke-dasharray:none;stroke-opacity:1;filter:url(#filter35304)"
               d="m -2169.8636,-1189.3728 c -0.597,-1.2328 -11.4504,-28.0184 -11.4504,-28.259 0,-0.1718 1.0114,-0.8245 2.2478,-1.4506 7.2781,-3.6859 15.7701,-10.0261 20.6615,-15.4263 3.1883,-3.5198 9.5713,-12.538 12.5633,-17.75 5.696,-9.9222 10.5918,-24.7273 12.8725,-38.9268 0.3713,-2.3109 0.4821,-6.2523 0.5853,-20.8072 0.07,-9.8759 0.2377,-17.8696 0.3725,-17.7637 0.6249,0.4903 4.6518,13.7801 6.5159,21.5038 2.9761,12.3312 4.3039,22.6221 4.3104,33.4054 0,7.4686 -0.4236,11.7001 -1.8428,18.2137 -5.1986,23.8604 -14.4666,41.9605 -27.8431,54.3765 -4.4023,4.0863 -11.3366,9.1273 -16.8381,12.2407 -1.7626,0.9975 -1.9555,1.0551 -2.1548,0.6435 z"
               transform="matrix(0.97526166,0,0,0.97526166,17.142111,596.66991)"
               id="path36514" />
            <path
               inkscape:connector-curvature="0"
               style="display:inline;opacity:1;fill:#555555;fill-opacity:1;stroke:#555555;stroke-width:9.375;stroke-miterlimit:4;stroke-dasharray:none;stroke-opacity:1;filter:url(#filter35103)"
               d="m -2168.8853,-1189.3728 c -0.597,-1.2328 -11.4504,-28.0184 -11.4504,-28.259 0,-0.1718 1.0114,-0.8245 2.2478,-1.4506 7.2781,-3.6859 15.7701,-10.0261 20.6615,-15.4263 3.1883,-3.5198 9.5713,-12.538 12.5633,-17.75 5.696,-9.9222 10.5918,-24.7273 12.8725,-38.9268 0.3713,-2.3109 0.4821,-6.2523 0.5853,-20.8072 0.07,-9.8759 0.2377,-17.8696 0.3725,-17.7637 0.6249,0.4903 4.6518,13.7801 6.5159,21.5038 2.9761,12.3312 4.3039,22.6221 4.3104,33.4054 0,7.4686 -0.4236,11.7001 -1.8428,18.2137 -5.1986,23.8604 -14.4666,41.9605 -27.8431,54.3765 -4.4023,4.0863 -11.3366,9.1273 -16.8381,12.2407 -1.7626,0.9975 -1.9555,1.0551 -2.1548,0.6435 v 0"
               transform="matrix(0.97526166,0,0,0.97526166,16.188016,596.66991)"
               id="path36516" />
            <path
               style="display:inline;opacity:1;fill:#aaaaaa;fill-opacity:1;stroke:#aaaaaa;stroke-width:4.6875;stroke-miterlimit:4;stroke-dasharray:none;stroke-opacity:1;filter:url(#filter35218)"
               d="m -2169.3745,-1189.3728 c -0.597,-1.2328 -11.4504,-28.0184 -11.4504,-28.259 0,-0.1718 1.0114,-0.8245 2.2478,-1.4506 7.2781,-3.6859 15.7701,-10.0261 20.6615,-15.4263 3.1883,-3.5198 9.5713,-12.538 12.5633,-17.75 5.696,-9.9222 10.5918,-24.7273 12.8725,-38.9268 0.3713,-2.3109 0.4821,-6.2523 0.5853,-20.8072 0.07,-9.8759 0.2377,-17.8696 0.3725,-17.7637 0.6249,0.4903 4.6518,13.7801 6.5159,21.5038 2.9761,12.3312 4.3039,22.6221 4.3104,33.4054 0,7.4686 -0.4236,11.7001 -1.8428,18.2137 -5.1986,23.8604 -14.4666,41.9605 -27.8431,54.3765 -4.4023,4.0863 -11.3366,9.1273 -16.8381,12.2407 -1.7626,0.9975 -1.9555,1.0551 -2.1548,0.6435 v 0"
               transform="matrix(0.97526166,0,0,0.97526166,16.665108,596.66991)"
               id="path36518"
               inkscape:connector-curvature="0" />
            <path
               style="display:inline;fill:#ffffff;stroke-width:0.81987774"
               d="m -2099.0426,-563.27978 c -0.5823,-1.2023 -11.1672,-27.3253 -11.1672,-27.5599 0,-0.1676 0.9864,-0.8041 2.1922,-1.4147 7.0981,-3.5948 15.3804,-9.7781 20.1508,-15.0447 3.1094,-3.4327 9.3341,-12.2278 12.2521,-17.3109 5.5551,-9.67684 10.3298,-24.11564 12.5541,-37.96384 0.3621,-2.2538 0.4701,-6.0977 0.5708,-20.2925 0.068,-9.6316 0.2318,-17.42748 0.3633,-17.32418 0.6094,0.4781 4.5367,13.43918 6.3547,20.97178 2.9024,12.0261 4.1974,22.0625 4.2037,32.579 0,7.2838 -0.4131,11.4106 -1.7972,17.76314 -5.07,23.2701 -14.1087,40.9225 -27.1543,53.0313 -4.2934,3.9852 -11.0561,8.9015 -16.4215,11.9379 -1.719,0.9728 -1.9072,1.029 -2.1015,0.6276 z"
               id="path36520"
               inkscape:connector-curvature="0" />
          </g>
        </g>
      </g>
    </g>
  </g>
</svg>
