<?xml version="1.0" encoding="UTF-8" standalone="no"?>
<svg
   xmlns:svg="http://www.w3.org/2000/svg"
   xmlns="http://www.w3.org/2000/svg"
   id="frame-central-blade-shadow-clip"
   version="1.1"
   viewBox="0 0 1280 720"
   height="720"
   width="1280"
   >
  <defs
     id="defs34006">
  </defs>
  <metadata
     id="metadata34009">
    </metadata>
  <g
     id="frame-central-blade-shadow-clip-container">
    <path
       class="frame-central-blade-white"
       id="path4203"
       d="m 638.36861,521.26725 c -4.8967,-3.4322 -9.41012,-38.13331 -12.13969,-93.32667 -2.03527,-41.16889 -2.68628,-75.68455 -2.44685,-129.76336 0.17321,-39.00442 0.364,-50.12548 1.32832,-77.28893 2.23606,-62.98277 6.61795,-107.1453 11.63586,-117.27503 0.90641,-1.82882 1.85845,-2.91239 2.21443,-2.51945 0.0731,0.0802 0.0329,1.07123 -0.11989,2.20143 -1.35596,10.97987 -2.17647,51.84042 -2.40955,119.96398 -0.28305,82.88193 0.84575,151.48368 2.65064,161.05828 0,0 0.20647,1.10652 0.20647,1.10652 0,0 0.23978,-1.10652 0.23978,-1.10652 1.82981,-8.39814 2.99495,-78.10277 2.70092,-161.53246 -0.23977,-67.85351 -1.0559,-108.29282 -2.41288,-119.4898 -0.13652,-1.13023 -0.18985,-2.12051 -0.11683,-2.20143 0.33464,-0.36862 1.28504,0.64505 2.07889,2.21742 5.5284,10.95122 10.11773,60.45401 12.24857,132.11798 1.2937,43.5062 1.29337,106.86058 -3.3e-4,151.57525 -2.19177,75.73882 -7.41881,127.97084 -13.40507,133.9571 -0.5647,0.5647 -1.67329,0.71491 -2.25671,0.30629 0,0 0.004,-6e-4 0.004,-6e-4"
       style="display:inline;fill:#ffffff;fill-opacity:1;stroke-width:1.4901576"
       />
  </g>
</svg>
