<?xml version="1.0" encoding="UTF-8" standalone="no"?>
<!-- Created with Inkscape (http://www.inkscape.org/) -->

<svg
   xmlns:svg="http://www.w3.org/2000/svg"
   xmlns="http://www.w3.org/2000/svg"
   width="1280"
   height="720"
   viewBox="0 0 1199.9999 674.99997"
   id="svg4808"
   version="1.1"
   >
  <defs
     id="defs4810">
    <filter
       style="color-interpolation-filters:sRGB"
       id="filter1462"
       x="-0.22425409"
       width="1.4485081"
       y="-0.081917264"
       height="1.1638345">
      <feGaussianBlur
         stdDeviation="17.992656"
         id="feGaussianBlur1464" />
    </filter>
  </defs>
  <metadata
     id="metadata4813">
    </metadata>
  <g
     id="layer1"
     transform="translate(-265.30229,-113.98232)">
    <path
       id="path1460"
       d="m 865.64395,187.91275 c -0.15249,-0.007 -0.30371,5e-4 -0.45745,0.0252 -9.95453,1.8288 -15.31831,73.54263 -15.35297,205.28765 -0.0378,133.26543 5.47846,207.06804 15.46828,207.06804 1.83182,0 4.65932,-5.28413 6.28547,-11.74226 5.86117,-23.27682 9.20195,-94.36307 9.17877,-195.32578 -0.0252,-130.1384 -5.53895,-204.74564 -15.1221,-205.31638 z m -1.1619,11.19016 c 0.32387,-0.42847 1.25011,10.98399 2.13906,26.62529 2.39147,42.08814 2.62864,171.99882 0.37931,207.06817 l -1.86294,29.01589 -2.26684,-52.7562 c -1.79276,-41.6985 -0.68807,-190.79237 1.55382,-209.7059 0.0126,-0.1361 0.0378,-0.21927 0.0504,-0.247 z m -26.25038,247.02256 c -1.17451,0.0504 -2.96146,6.89087 -5.49407,20.52139 -3.69931,19.90959 -13.22437,40.48316 -27.44152,59.27231 -22.66474,29.95359 -36.27385,56.76879 -36.27385,71.47237 0,4.1458 1.77939,11.79228 3.9526,16.99311 4.85541,11.62089 19.86951,29.16181 22.49147,26.27521 1.05604,-1.16316 4.40426,-8.88388 7.43932,-17.1582 5.16957,-14.0934 5.25539,-15.67217 1.38495,-24.9355 -5.23662,-12.53289 -2.28348,-23.93665 12.67794,-48.96842 16.32408,-27.31172 23.31173,-52.50077 23.09725,-83.27247 -0.10082,-13.51623 -0.65908,-20.25097 -1.83409,-20.1998 z m 54.14115,0.70445 c -0.91742,-0.0252 -1.0825,6.52 -1.45904,18.77779 -0.93759,30.52736 4.98343,52.83849 21.77831,82.08953 16.04217,27.94017 18.84674,38.3635 13.66305,50.76962 -4.27623,10.23456 -4.1124,11.24007 6.03407,37.18901 l 2.99637,7.66199 7.71554,-7.39408 c 4.2446,-4.06652 10.13828,-12.54638 13.09835,-18.84395 2.9602,-6.29733 5.3828,-15.56934 5.3828,-20.60369 0,-11.25608 -17.87865,-46.66241 -34.69949,-68.71898 -15.55094,-20.39148 -21.99571,-33.31277 -27.06648,-54.26894 -4.39443,-18.16119 -6.40318,-26.62907 -7.44348,-26.6583 z m -46.87473,121.12899 -4.78106,6.27717 c -2.62802,3.45243 -7.45645,10.71392 -10.73258,16.13604 l -5.95569,9.85877 6.78817,16.96853 c 3.83465,9.58518 6.78829,22.22582 6.78829,29.0489 0,13.54861 -0.49525,13.22966 13.86505,8.92735 l 10.52239,-3.15301 -1.18332,-26.60072 c -0.96154,-21.60705 -2.51006,-29.5042 -8.24735,-42.03596 z m 40.17302,0.71706 -4.2659,6.50802 c -6.86818,10.48231 -12.14627,35.22814 -12.14627,56.93955 v 20.16692 l 8.57287,2.74911 c 14.4654,4.64041 15.16746,4.23325 15.16746,-8.79138 0,-6.82308 2.95352,-19.46372 6.7883,-29.04877 l 6.78817,-16.96853 -5.95569,-9.85889 c -3.27625,-5.422 -7.97943,-12.52207 -10.45232,-15.7774 z m -68.84273,46.46253 c -0.27346,0.0105 -0.52298,0.12728 -0.74604,0.35033 -1.27935,1.27922 -4.66562,8.72673 -7.52601,16.5523 -4.45693,12.19377 -4.6568,14.53749 -1.3808,16.37082 2.10252,1.17702 5.88399,8.66599 8.39984,16.64706 l 4.57501,14.51215 6.17811,-7.32412 c 5.17739,-6.13527 5.99109,-9.49495 5.01193,-20.69028 -1.24256,-14.20126 -10.4251,-36.61561 -14.51204,-36.41839 z m 96.98894,0.0252 c -3.89526,-0.13988 -13.05751,21.24426 -14.71404,35.23117 -1.23751,10.44564 -0.45241,13.93486 4.70684,20.91294 l 6.19473,8.37501 4.71918,-13.97632 c 2.59538,-7.68594 6.45057,-15.26765 8.56883,-16.84895 3.34431,-2.4967 3.17191,-4.73014 -1.29837,-16.96034 -2.83141,-7.7463 -6.19311,-15.12865 -7.47234,-16.408 -0.20919,-0.2092 -0.44485,-0.31631 -0.70445,-0.32513 z m -48.72118,45.46093 c -11.23854,0.18525 -21.64638,5.22313 -28.67789,14.44197 -7.86174,10.30714 -11.00503,24.21063 -7.96293,35.21491 1.95218,7.06163 2.14171,6.85987 4.22052,-4.47206 1.24886,-6.8101 4.54376,-13.80973 7.72387,-16.42035 8.73984,-7.17505 23.31261,-10.23506 34.46043,-7.2334 14.40189,3.878 20.60798,10.2406 23.06851,23.65375 2.07882,11.33193 2.26836,11.53369 4.22052,4.47206 4.59594,-16.62526 -6.66933,-41.22126 -21.45281,-46.84185 -5.21406,-1.98242 -10.49177,-2.89946 -15.60022,-2.81503 z"
       style="color:#000000;display:inline;overflow:visible;visibility:visible;opacity:1;fill:#ffffff;fill-opacity:1;fill-rule:nonzero;stroke:#ffffff;stroke-width:3.74999976;stroke-linecap:butt;stroke-linejoin:miter;stroke-miterlimit:4;stroke-dasharray:none;stroke-dashoffset:0;stroke-opacity:1;marker:none;filter:url(#filter1462);enable-background:accumulate" />
    <path
       style="color:#000000;display:inline;overflow:visible;visibility:visible;opacity:1;fill:#ffffff;fill-opacity:1;fill-rule:nonzero;stroke:#f8f8f8;stroke-width:1.00031245;stroke-linecap:butt;stroke-linejoin:miter;stroke-miterlimit:4;stroke-dasharray:none;stroke-dashoffset:0;stroke-opacity:1;marker:none;enable-background:accumulate"
       d="m 865.64395,187.92807 c -0.15249,-0.007 -0.30371,5e-4 -0.45745,0.0252 -9.95453,1.8288 -15.31831,73.54263 -15.35297,205.28765 -0.0378,133.26543 5.47846,207.06804 15.46828,207.06804 1.83182,0 4.65932,-5.28413 6.28547,-11.74226 5.86117,-23.27682 9.20195,-94.36307 9.17877,-195.32578 -0.0252,-130.1384 -5.53895,-204.74564 -15.1221,-205.31638 z m -1.1619,11.19016 c 0.32387,-0.42847 1.25011,10.98399 2.13906,26.62529 2.39147,42.08814 2.62864,171.99882 0.37931,207.06817 l -1.86294,29.01589 -2.26684,-52.7562 c -1.79276,-41.6985 -0.68807,-190.79237 1.55382,-209.7059 0.0126,-0.1361 0.0378,-0.21927 0.0504,-0.247 z m -26.25038,247.02256 c -1.17451,0.0504 -2.96146,6.89087 -5.49407,20.52139 -3.69931,19.90959 -13.22437,40.48316 -27.44152,59.27231 -22.66474,29.95359 -36.27385,56.76879 -36.27385,71.47237 0,4.1458 1.77939,11.79228 3.9526,16.99311 4.85541,11.62089 19.86951,29.16181 22.49147,26.27521 1.05604,-1.16316 4.40426,-8.88388 7.43932,-17.1582 5.16957,-14.0934 5.25539,-15.67217 1.38495,-24.9355 -5.23662,-12.53289 -2.28348,-23.93665 12.67794,-48.96842 16.32408,-27.31172 23.31173,-52.50077 23.09725,-83.27247 -0.10082,-13.51623 -0.65908,-20.25097 -1.83409,-20.1998 z m 54.14115,0.70445 c -0.91742,-0.0252 -1.0825,6.52 -1.45904,18.77779 -0.93759,30.52736 4.98343,52.83849 21.77831,82.08953 16.04217,27.94017 18.84674,38.3635 13.66305,50.76962 -4.27623,10.23456 -4.1124,11.24007 6.03407,37.18901 l 2.99637,7.66199 7.71554,-7.39408 c 4.2446,-4.06652 10.13828,-12.54638 13.09835,-18.84395 2.9602,-6.29733 5.3828,-15.56934 5.3828,-20.60369 0,-11.25608 -17.87865,-46.66241 -34.69949,-68.71898 -15.55094,-20.39148 -21.99571,-33.31277 -27.06648,-54.26894 -4.39443,-18.16119 -6.40318,-26.62907 -7.44348,-26.6583 z m -46.87473,121.12899 -4.78106,6.27717 c -2.62802,3.45243 -7.45645,10.71392 -10.73258,16.13604 l -5.95569,9.85877 6.78817,16.96853 c 3.83465,9.58518 6.78829,22.22582 6.78829,29.0489 0,13.54861 -0.49525,13.22966 13.86505,8.92735 l 10.52239,-3.15301 -1.18332,-26.60072 c -0.96154,-21.60705 -2.51006,-29.5042 -8.24735,-42.03596 z m 40.17302,0.71706 -4.2659,6.50802 c -6.86818,10.48231 -12.14627,35.22814 -12.14627,56.93955 v 20.16692 l 8.57287,2.74911 c 14.4654,4.64041 15.16746,4.23325 15.16746,-8.79138 0,-6.82308 2.95352,-19.46372 6.7883,-29.04877 l 6.78817,-16.96853 -5.95569,-9.85889 c -3.27625,-5.422 -7.97943,-12.52207 -10.45232,-15.7774 z m -68.84273,46.46253 c -0.27346,0.0105 -0.52298,0.12728 -0.74604,0.35033 -1.27935,1.27922 -4.66562,8.72673 -7.52601,16.5523 -4.45693,12.19377 -4.6568,14.53749 -1.3808,16.37082 2.10252,1.17702 5.88399,8.66599 8.39984,16.64706 l 4.57501,14.51215 6.17811,-7.32412 c 5.17739,-6.13527 5.99109,-9.49495 5.01193,-20.69028 -1.24256,-14.20126 -10.4251,-36.61561 -14.51204,-36.41839 z m 96.98894,0.0252 c -3.89526,-0.13988 -13.05751,21.24426 -14.71404,35.23117 -1.23751,10.44564 -0.45241,13.93486 4.70684,20.91294 l 6.19473,8.37501 4.71918,-13.97632 c 2.59538,-7.68594 6.45057,-15.26765 8.56883,-16.84895 3.34431,-2.4967 3.17191,-4.73014 -1.29837,-16.96034 -2.83141,-7.7463 -6.19311,-15.12865 -7.47234,-16.408 -0.20919,-0.2092 -0.44485,-0.31631 -0.70445,-0.32513 z m -48.72118,45.46093 c -11.23854,0.18525 -21.64638,5.22313 -28.67789,14.44197 -7.86174,10.30714 -11.00503,24.21063 -7.96293,35.21491 1.95218,7.06163 2.14171,6.85987 4.22052,-4.47206 1.24886,-6.8101 4.54376,-13.80973 7.72387,-16.42035 8.73984,-7.17505 23.31261,-10.23506 34.46043,-7.2334 14.40189,3.878 20.60798,10.2406 23.06851,23.65375 2.07882,11.33193 2.26836,11.53369 4.22052,4.47206 4.59594,-16.62526 -6.66933,-41.22126 -21.45281,-46.84185 -5.21406,-1.98242 -10.49177,-2.89946 -15.60022,-2.81503 z"
       id="rect5082"
       />
  </g>
</svg>
