<?xml version="1.0" encoding="UTF-8" standalone="no"?>
<!-- Created with Inkscape (http://www.inkscape.org/) -->

<svg
   xmlns:svg="http://www.w3.org/2000/svg"
   xmlns="http://www.w3.org/2000/svg"
   width="1280"
   height="720"
   viewBox="0 0 1199.9999 674.99997"
   id="svg4808"
   version="1.1"
   >
  <defs
     id="defs4810">
    <filter
       style="color-interpolation-filters:sRGB"
       id="filter1462"
       x="-0.22425409"
       width="1.4485081"
       y="-0.081917264"
       height="1.1638345">
      <feGaussianBlur
         stdDeviation="17.992656"
         id="feGaussianBlur1464" />
    </filter>
  </defs>
  <metadata
     id="metadata4813">
    </metadata>
  <g
     id="layer1"
     transform="translate(-265.30229,-113.98232)">
    <path
       id="path1460"
       d="m 865.64395,187.91275 c -0.15249,-0.007 -0.30371,5e-4 -0.45745,0.0252 -9.95453,1.8288 -15.31831,73.54263 -15.35297,205.28765 -0.0378,133.26543 5.47846,207.06804 15.46828,207.06804 1.83182,0 4.65932,-5.28413 6.28547,-11.74226 5.86117,-23.27682 9.20195,-94.36307 9.17877,-195.32578 -0.0252,-130.1384 -5.53895,-204.74564 -15.1221,-205.31638 z m -1.1619,11.19016 c 0.32387,-0.42847 1.25011,10.98399 2.13906,26.62529 2.39147,42.08814 2.62864,171.99882 0.37931,207.06817 l -1.86294,29.01589 -2.26684,-52.7562 c -1.79276,-41.6985 -0.68807,-190.79237 1.55382,-209.7059 0.0126,-0.1361 0.0378,-0.21927 0.0504,-0.247 z m -26.25038,247.02256 c -1.17451,0.0504 -2.96146,6.89087 -5.49407,20.52139 -3.69931,19.90959 -13.22437,40.48316 -27.44152,59.27231 -22.66474,29.95359 -36.27385,56.76879 -36.27385,71.47237 0,4.1458 1.77939,11.79228 3.9526,16.99311 4.85541,11.62089 19.86951,29.16181 22.49147,26.27521 1.05604,-1.16316 4.40426,-8.88388 7.43932,-17.1582 5.16957,-14.0934 5.25539,-15.67217 1.38495,-24.9355 -5.23662,-12.53289 -2.28348,-23.93665 12.67794,-48.96842 16.32408,-27.31172 23.31173,-52.50077 23.09725,-83.27247 -0.10082,-13.51623 -0.65908,-20.25097 -1.83409,-20.1998 z m 54.14115,0.70445 c -0.91742,-0.0252 -1.0825,6.52 -1.45904,18.77779 -0.93759,30.52736 4.98343,52.83849 21.77831,82.08953 16.04217,27.94017 18.84674,38.3635 13.66305,50.76962 -4.27623,10.23456 -4.1124,11.24007 6.03407,37.18901 l 2.99637,7.66199 7.71554,-7.39408 c 4.2446,-4.06652 10.13828,-12.54638 13.09835,-18.84395 2.9602,-6.29733 5.3828,-15.56934 5.3828,-20.60369 0,-11.25608 -17.87865,-46.66241 -34.69949,-68.71898 -15.55094,-20.39148 -21.99571,-33.31277 -27.06648,-54.26894 -4.39443,-18.16119 -6.40318,-26.62907 -7.44348,-26.6583 z m -46.87473,121.12899 -4.78106,6.27717 c -2.62802,3.45243 -7.45645,10.71392 -10.73258,16.13604 l -5.95569,9.85877 6.78817,16.96853 c 3.83465,9.58518 6.78829,22.22582 6.78829,29.0489 0,13.54861 -0.49525,13.22966 13.86505,8.92735 l 10.52239,-3.15301 -1.18332,-26.60072 c -0.96154,-21.60705 -2.51006,-29.5042 -8.24735,-42.03596 z m 40.17302,0.71706 -4.2659,6.50802 c -6.86818,10.48231 -12.14627,35.22814 -12.14627,56.93955 v 20.16692 l 8.57287,2.74911 c 14.4654,4.64041 15.16746,4.23325 15.16746,-8.79138 0,-6.82308 2.95352,-19.46372 6.7883,-29.04877 l 6.78817,-16.96853 -5.95569,-9.85889 c -3.27625,-5.422 -7.97943,-12.52207 -10.45232,-15.7774 z m -68.84273,46.46253 c -0.27346,0.0105 -0.52298,0.12728 -0.74604,0.35033 -1.27935,1.27922 -4.66562,8.72673 -7.52601,16.5523 -4.45693,12.19377 -4.6568,14.53749 -1.3808,16.37082 2.10252,1.17702 5.88399,8.66599 8.39984,16.64706 l 4.57501,14.51215 6.17811,-7.32412 c 5.17739,-6.13527 5.99109,-9.49495 5.01193,-20.69028 -1.24256,-14.20126 -10.4251,-36.61561 -14.51204,-36.41839 z m 96.98894,0.0252 c -3.89526,-0.13988 -13.05751,21.24426 -14.71404,35.23117 -1.23751,10.44564 -0.45241,13.93486 4.70684,20.91294 l 6.19473,8.37501 4.71918,-13.97632 c 2.59538,-7.68594 6.45057,-15.26765 8.56883,-16.84895 3.34431,-2.4967 3.17191,-4.73014 -1.29837,-16.96034 -2.83141,-7.7463 -6.19311,-15.12865 -7.47234,-16.408 -0.20919,-0.2092 -0.44485,-0.31631 -0.70445,-0.32513 z m -48.72118,45.46093 c -11.23854,0.18525 -21.64638,5.22313 -28.67789,14.44197 -7.86174,10.30714 -11.00503,24.21063 -7.96293,35.21491 1.95218,7.06163 2.14171,6.85987 4.22052,-4.47206 1.24886,-6.8101 4.54376,-13.80973 7.72387,-16.42035 8.73984,-7.17505 23.31261,-10.23506 34.46043,-7.2334 14.40189,3.878 20.60798,10.2406 23.06851,23.65375 2.07882,11.33193 2.26836,11.53369 4.22052,4.47206 4.59594,-16.62526 -6.66933,-41.22126 -21.45281,-46.84185 -5.21406,-1.98242 -10.49177,-2.89946 -15.60022,-2.81503 z"
       style="color:#000000;display:inline;overflow:visible;visibility:visible;opacity:1;fill:#ffffff;fill-opacity:1;fill-rule:nonzero;stroke:#ffffff;stroke-width:3.74999976;stroke-linecap:butt;stroke-linejoin:miter;stroke-miterlimit:4;stroke-dasharray:none;stroke-dashoffset:0;stroke-opacity:1;marker:none;filter:url(#filter1462);enable-background:accumulate"
       transform="matrix(0.74730904,0,0,0.81126411,218.65406,38.009096)" />
    <path
       style="color:#000000;display:inline;overflow:visible;visibility:visible;opacity:1;fill:#ffffff;fill-opacity:1;fill-rule:nonzero;stroke:#f8f8f8;stroke-width:0.7788735;stroke-linecap:butt;stroke-linejoin:miter;stroke-miterlimit:4;stroke-dasharray:none;stroke-dashoffset:0;stroke-opacity:1;marker:none;enable-background:accumulate"
       d="m 865.5576,190.46839 c -0.11395,-0.006 -0.22696,4.1e-4 -0.34185,0.0205 -7.43911,1.48364 -11.44751,59.66249 -11.47341,166.5425 -0.0282,108.11346 4.0941,167.98687 11.55958,167.98687 1.36894,0 3.48195,-4.28683 4.69719,-9.52608 4.3801,-18.88365 6.8767,-76.55337 6.85938,-158.46079 -0.0188,-105.57661 -4.13931,-166.10279 -11.30089,-166.56581 z m -0.86829,9.07818 c 0.24203,-0.34761 0.93421,8.91091 1.59854,21.60014 1.78716,34.1446 1.9644,139.53647 0.28346,167.98697 l -1.39219,23.53955 -1.69403,-42.79921 c -1.33975,-33.82849 -0.51421,-154.783 1.16118,-170.12687 0.009,-0.11041 0.0283,-0.17788 0.0377,-0.20038 z M 845.07216,399.9471 c -0.87772,0.0409 -2.21313,5.59032 -4.10577,16.64827 -2.76453,16.15194 -9.88269,32.84254 -20.50729,48.0855 -16.93757,24.30027 -27.10778,46.05448 -27.10778,57.98297 0,3.36334 1.32975,9.56665 2.95381,13.7859 3.6285,9.42761 14.84867,23.65793 16.80808,21.31613 0.78919,-0.94363 3.29135,-7.20717 5.55947,-13.91983 3.86327,-11.43347 3.9274,-12.71427 1.03499,-20.22928 -3.91337,-10.16748 -1.70647,-19.41894 9.47434,-39.72632 12.19913,-22.15701 17.42107,-42.59199 17.26078,-67.55596 -0.0753,-10.96524 -0.49253,-16.42889 -1.37063,-16.38738 z m 40.46017,0.5715 c -0.6856,-0.0204 -0.80896,5.28944 -1.09035,15.23375 -0.70067,24.76575 3.72416,42.86597 16.27512,66.59629 11.98846,22.66685 14.08434,31.12293 10.21053,41.18757 -3.19567,8.30293 -3.07324,9.11866 4.50931,30.17011 l 2.23922,6.21589 5.76589,-5.99855 c 3.17203,-3.29902 7.57643,-10.17843 9.78851,-15.28742 2.21219,-5.1088 4.02262,-12.63085 4.02262,-16.71503 0,-9.13166 -13.36088,-37.85554 -25.93124,-55.74925 -11.62136,-16.54287 -16.4376,-27.02545 -20.22703,-44.02644 -3.284,-14.73352 -4.78515,-21.60321 -5.56258,-21.62692 z m -35.02991,98.2676 -3.57293,5.09244 c -1.96394,2.80084 -5.57227,8.69182 -8.02055,13.09059 l -4.45074,7.99807 5.07286,13.76596 c 2.86567,7.77611 5.07295,18.03101 5.07295,23.56633 0,10.9915 -0.37011,10.73275 10.36148,7.24244 l 7.86347,-2.55793 -0.8843,-21.5802 c -0.71857,-17.52903 -1.87579,-23.9357 -6.16332,-34.10227 z m 30.02166,0.58173 -3.18794,5.27972 c -5.13266,8.50392 -9.07702,28.57933 -9.07702,46.19301 v 16.3607 l 6.40658,2.23026 c 10.81013,3.76459 11.33478,3.43428 11.33478,-7.13214 0,-5.53532 2.20719,-15.79021 5.07296,-23.56622 l 5.07286,-13.76596 -4.45074,-7.99816 c -2.44837,-4.39868 -5.9631,-10.15871 -7.81111,-12.79964 z m -51.44679,37.69338 c -0.20436,0.009 -0.39083,0.10326 -0.55752,0.28421 -0.95607,1.03778 -3.48666,7.07968 -5.62426,13.42829 -3.3307,9.89236 -3.48007,11.79374 -1.03188,13.28106 1.57123,0.95487 4.39716,7.0304 6.27727,13.50516 l 3.41895,11.77318 4.61696,-5.94179 c 3.86911,-4.97733 4.47719,-7.70291 3.74546,-16.78528 -0.92858,-11.52098 -7.79077,-29.70493 -10.84498,-29.54494 z m 72.48071,0.0204 c -2.91096,-0.11348 -9.758,17.23471 -10.99594,28.58179 -0.9248,8.47417 -0.33809,11.30485 3.51747,16.96591 l 4.62938,6.79435 3.52668,-11.33849 c 1.93955,-6.23532 4.82057,-12.38609 6.40357,-13.66895 2.49923,-2.02548 2.37039,-3.83739 -0.97029,-13.75931 -2.11594,-6.2843 -4.62816,-12.27333 -5.58414,-13.31122 -0.15633,-0.16972 -0.33245,-0.25661 -0.52645,-0.26377 z m -36.40978,36.88082 c -8.39866,0.15029 -16.17653,4.23734 -21.43124,11.71626 -5.87515,8.36181 -8.22416,19.64121 -5.95077,28.56859 1.45888,5.72885 1.60051,5.56517 3.15403,-3.62802 0.93328,-5.52479 3.39559,-11.20334 5.77212,-13.32124 6.53136,-5.82086 17.42172,-8.30334 25.75259,-5.8682 10.76266,3.14608 15.40053,8.30783 17.2393,19.18944 1.55352,9.19319 1.69517,9.35687 3.15404,3.62802 3.43458,-13.48748 -4.98406,-33.44133 -16.03188,-38.00111 -3.89652,-1.60827 -7.8406,-2.35223 -11.65819,-2.28374 z"
       id="rect5082"
       />
    <text
       xml:space="preserve"
       style="font-style:italic;font-variant:normal;font-weight:500;font-stretch:normal;font-size:82.03124237px;line-height:125%;font-family:Rubik;-inkscape-font-specification:'Rubik, Medium Italic';text-align:start;letter-spacing:0px;word-spacing:0px;writing-mode:lr-tb;text-anchor:start;fill:#000000;fill-opacity:1;stroke:none;stroke-width:0.93749994px;stroke-linecap:butt;stroke-linejoin:miter;stroke-opacity:1"
       x="486.78775"
       y="477.93439"
       id="text1487"><tspan
         id="tspan1485"
         x="486.78775"
         y="552.91339"
         style="stroke-width:0.93749994px" /></text>
    <text
       class="duelist-name"
       xml:space="preserve"
       style="font-style:italic;font-variant:normal;font-weight:bold;font-stretch:normal;font-size:39.90614319px;line-height:125%;font-family:'Neo Sans Std';-inkscape-font-specification:'Neo Sans Std, Bold Italic';font-variant-ligatures:normal;font-variant-caps:normal;font-variant-numeric:normal;font-feature-settings:normal;text-align:center;letter-spacing:0px;word-spacing:0px;writing-mode:lr-tb;text-anchor:middle;display:inline;fill:#000000;fill-opacity:1;stroke:none;stroke-width:0.3894462px;stroke-linecap:butt;stroke-linejoin:miter;stroke-opacity:1"
       x="722.88232"
       y="705.9198"
       id="left-duelist-name"><tspan
         id="tspan4870"
         x="722.88232"
         y="705.9198"
         style="font-style:italic;font-variant:normal;font-weight:bold;font-stretch:normal;font-size:62.49999619px;font-family:'Neo Sans Std';-inkscape-font-specification:'Neo Sans Std, Bold Italic';font-variant-ligatures:normal;font-variant-caps:normal;font-variant-numeric:normal;font-feature-settings:normal;text-align:start;writing-mode:lr-tb;text-anchor:start;fill:#f39400;fill-opacity:1;stroke-width:0.3894462px">00:00:00</tspan></text>
  </g>
</svg>
