<?xml version="1.0" encoding="UTF-8" standalone="no"?>
<!-- Created with Inkscape (http://www.inkscape.org/) -->

<svg
   xmlns:dc="http://purl.org/dc/elements/1.1/"
   xmlns:cc="http://creativecommons.org/ns#"
   xmlns:rdf="http://www.w3.org/1999/02/22-rdf-syntax-ns#"
   xmlns:svg="http://www.w3.org/2000/svg"
   xmlns="http://www.w3.org/2000/svg"
   xmlns:sodipodi="http://sodipodi.sourceforge.net/DTD/sodipodi-0.dtd"
   xmlns:inkscape="http://www.inkscape.org/namespaces/inkscape"
   id="svg4190"
   version="1.1"
   inkscape:version="0.91 r13725"
   width="312.5"
   height="312.5"
   viewBox="0 0 312.5 312.5"
   sodipodi:docname="f1.svg">
  <metadata
     id="metadata4196">
    <rdf:RDF>
      <cc:Work
         rdf:about="">
        <dc:format>image/svg+xml</dc:format>
        <dc:type
           rdf:resource="http://purl.org/dc/dcmitype/StillImage" />
        <dc:title></dc:title>
      </cc:Work>
    </rdf:RDF>
  </metadata>
  <defs
     id="defs4194" />
  <sodipodi:namedview
     pagecolor="#ffffff"
     bordercolor="#666666"
     borderopacity="1"
     objecttolerance="10"
     gridtolerance="10"
     guidetolerance="10"
     inkscape:pageopacity="0"
     inkscape:pageshadow="2"
     inkscape:window-width="1920"
     inkscape:window-height="1029"
     id="namedview4192"
     showgrid="false"
     inkscape:zoom="0.99786909"
     inkscape:cx="-35.645006"
     inkscape:cy="180.14455"
     inkscape:window-x="0"
     inkscape:window-y="0"
     inkscape:window-maximized="1"
     inkscape:current-layer="svg4190" />
  <path
     style="fill:#000000"
     d="m 154.67242,291.65403 c -25.15681,-3.80741 -43.23056,-9.29185 -62.797421,-19.05573 -50.21902,-25.05931 -76.11761,-63.56437 -70.77481,-105.22533 2.06991,-16.14029 5.4875,-25.38649 19.21875,-51.99584 1.06431,-2.0625 2.78385,-5.77286 3.82118,-8.24524 2.30973,-5.505 12.12638,-14.05707 24.56219,-21.3981 8.11046,-4.78772 9.33353,-5.9738 9.375,-9.09151 0.0376,-2.82439 1.14226,-4.26786 5.2043,-6.8003 2.83614,-1.76817 8.46114,-5.91271 12.5,-9.2101 9.378711,-7.65693 21.974511,-13.76602 36.131591,-17.52417 l 11.17673,-2.967 -4.35746,-1.39559 C 125.59938,34.53889 91.329359,27.50098 73.420979,25.33233 c -9.35799,-1.13322 -10.14666,-2.68931 -1.87536,-3.70018 11.9265,-1.45759 44.021041,4.44195 68.835551,12.65319 9.99388,3.30702 14.62604,4.25917 17.8125,3.66139 3.45468,-0.64811 4.30633,-0.41127 4.30633,1.19754 0,1.10297 0.5625,1.65776 1.25,1.23287 0.6875,-0.4249 1.25,0.1044 1.25,1.17622 0,1.25735 1.13493,1.94878 3.19877,1.94878 1.75933,0 2.86856,0.53427 2.46499,1.18728 -1.15968,1.87639 3.6732,3.81114 9.56656,3.82978 9.14758,0.0289 11.32801,1.06542 10.7354,5.10311 -0.46834,3.191 0.3687,4.10033 9.00756,9.78548 28.99565,19.08177 69.85024,61.19234 81.19637,83.69258 4.38788,8.7015 8.06465,20.51255 10.01093,32.15851 2.30578,13.79715 -1.83746,32.71501 -10.76566,49.15554 -18.15914,33.43851 -53.0432,56.44493 -94.92989,62.60728 -15.74052,2.31575 -19.21816,2.38712 -30.81261,0.63233 z m 52.4336,-30.07255 c 8.75,-2.7315 15.71006,-5.72276 18.21499,-7.82835 2.2297,-1.87423 7.15494,-5.48654 10.94499,-8.02735 8.7754,-5.88295 14.83672,-13.86698 21.72758,-28.61978 7.41849,-15.88237 9.50642,-23.55835 9.50642,-34.94907 0,-21.15828 -7.74263,-36.19578 -37.07539,-72.00669 C 224.69107,103.15044 220,97.07041 220,96.63904 c 0,-1.66687 15.29278,12.67463 17.02553,15.96646 1.00702,1.9131 2.3447,3.16085 2.97263,2.77276 1.564,-0.9666 20.79914,21.377 26.55114,30.84187 18.69547,30.76327 14.99771,61.44741 -10.81965,89.78201 l -6.26424,6.875 7.22254,-6.875 c 9.8635,-9.38889 16.51453,-19.90636 20.38405,-32.2339 2.87947,-9.17344 3.1806,-11.81982 2.63138,-23.125 -0.76098,-15.66464 -4.18887,-25.45702 -14.15411,-40.43386 -7.79112,-11.70934 -34.67264,-40.18949 -48.36174,-51.23781 -4.9844,-4.02285 -13.556,-11.39918 -19.04802,-16.39185 -5.49201,-4.99267 -10.41389,-9.07758 -10.9375,-9.07758 -0.5236,0 -0.95201,1.7192 -0.95201,3.82046 0,7.58651 -16.46213,17.9707 -36.7044,23.15285 -10.89473,2.78913 -11.09004,2.79574 -11.71747,0.39649 -0.48368,-1.84964 -1.28097,-2.22839 -3.29558,-1.56558 -1.46165,0.48088 -3.7178,0.80714 -5.01365,0.72504 -1.29587,-0.0821 -4.10837,1.17299 -6.25001,2.7891 -4.05779,3.06208 -13.57948,7.7054 -29.518891,14.39511 -13.30429,5.58376 -20.08022,10.27982 -29.55779,20.48502 -20.16993,21.71847 -23.10698,28.06355 -23.69449,51.18861 -0.48643,19.14598 1.07682,24.5606 11.1452,38.60378 7.56233,10.54777 15.32732,16.85671 28.35708,23.03966 5.15625,2.44677 14.54607,6.96321 20.866261,10.03651 7.62898,3.70973 14.98128,6.21686 21.875,7.45938 5.71105,1.02935 13.95466,2.68102 18.31914,3.67037 4.36446,0.98936 8.46471,1.4717 9.11167,1.07185 2.05583,-1.27056 11.99846,-0.78294 14.81945,0.72681 2.21274,1.18423 3.15789,1.0543 5.09709,-0.70065 2.25761,-2.04312 2.78516,-2.01875 10.20851,0.4716 4.30534,1.44434 8.91239,2.65025 10.23789,2.67983 1.32551,0.0296 8.78246,-1.93554 16.57101,-4.3669 z m 64.93599,-100.03171 c -1.09404,-3.21084 -3.92513,-9.2882 -6.29129,-13.50525 -4.51967,-8.05513 -24.25512,-32.70465 -25.32674,-31.63304 -0.34291,0.34291 2.82558,4.73128 7.04109,9.75193 12.41015,14.78041 24.98404,35.37508 25.02271,40.98457 0.006,0.97395 0.35673,1.42631 0.7778,1.00524 0.42108,-0.42107 -0.12953,-3.39263 -1.22357,-6.60345 z"
     id="path4350"
     inkscape:connector-curvature="0" />
</svg>
