<?xml version="1.0" encoding="UTF-8" standalone="no"?>
<!-- Created with Inkscape (http://www.inkscape.org/) -->

<svg
   xmlns:dc="http://purl.org/dc/elements/1.1/"
   xmlns:cc="http://creativecommons.org/ns#"
   xmlns:rdf="http://www.w3.org/1999/02/22-rdf-syntax-ns#"
   xmlns:svg="http://www.w3.org/2000/svg"
   xmlns="http://www.w3.org/2000/svg"
   xmlns:sodipodi="http://sodipodi.sourceforge.net/DTD/sodipodi-0.dtd"
   xmlns:inkscape="http://www.inkscape.org/namespaces/inkscape"
   id="svg4427"
   version="1.1"
   inkscape:version="0.91 r13725"
   width="312.5"
   height="312.5"
   viewBox="0 0 312.5 312.5"
   sodipodi:docname="f2.svg">
  <metadata
     id="metadata4433">
    <rdf:RDF>
      <cc:Work
         rdf:about="">
        <dc:format>image/svg+xml</dc:format>
        <dc:type
           rdf:resource="http://purl.org/dc/dcmitype/StillImage" />
        <dc:title></dc:title>
      </cc:Work>
    </rdf:RDF>
  </metadata>
  <defs
     id="defs4431" />
  <sodipodi:namedview
     pagecolor="#ffffff"
     bordercolor="#666666"
     borderopacity="1"
     objecttolerance="10"
     gridtolerance="10"
     guidetolerance="10"
     inkscape:pageopacity="0"
     inkscape:pageshadow="2"
     inkscape:window-width="1920"
     inkscape:window-height="1029"
     id="namedview4429"
     showgrid="false"
     inkscape:zoom="0.7552"
     inkscape:cx="156.25"
     inkscape:cy="156.25"
     inkscape:window-x="0"
     inkscape:window-y="0"
     inkscape:window-maximized="1"
     inkscape:current-layer="svg4427" />
  <path
     style="fill:#000000"
     d="M 14.6875,254.57275 C 13.484375,253.6249 12.5,252.20827 12.5,251.4247 12.5,250.64111 10.625,250 8.3333334,250 c -4.8894652,0 -6.3228026,-1.02906 -4.4972052,-3.22878 0.722941,-0.8711 1.4564087,-2.9154 1.6299282,-4.54288 0.4434611,-4.15938 1.6153639,-5.69353 6.1757086,-8.08464 5.756706,-3.01841 13.783768,-4.05808 15.677739,-2.03056 1.269441,1.35893 2.160756,1.32342 5.113946,-0.20373 1.967103,-1.01722 7.708675,-2.48454 12.75905,-3.26069 5.050375,-0.77615 12.399925,-2.75837 16.332335,-4.40495 3.932409,-1.64657 7.869909,-3.00712 8.75,-3.02345 0.88009,-0.0162 4.975165,-1.45503 9.100165,-3.19716 4.125,-1.74212 10.59375,-3.99253 14.375,-5.0009 3.78125,-1.00837 12.5,-4.59325 19.375,-7.96641 17.93996,-8.8021 31.64182,-13.68431 46.875,-16.7024 13.35339,-2.64565 20.04915,-4.42355 24.56391,-6.52235 2.1664,-1.0071 4.45799,-1.8311 5.0924,-1.8311 0.63443,0 5.65336,-1.95004 11.15319,-4.33341 10.71095,-4.64165 37.50377,-9.946 57.9405,-11.47089 14.03318,-1.04708 12.4168,0.2971 -2.54,2.11227 -6.50925,0.78997 -15.7725,2.73476 -20.585,4.32175 -4.8125,1.587 -11.98784,3.59108 -15.9452,4.45351 -3.95736,0.86242 -6.95408,1.80917 -6.65936,2.10388 0.29471,0.2947 4.65755,-0.32754 9.6952,-1.38277 52.08866,-10.91098 58.49167,-11.85602 74.15936,-10.94534 4.92295,0.28614 0.98782,1.25594 -18.53323,4.56746 -31.2649,5.30373 -55.78881,11.29228 -79.29013,19.36204 -10.13465,3.47999 -31.65218,10.19099 -47.81674,14.91332 -44.63019,13.03837 -75.525086,24.96933 -83.485305,32.2403 -2.268974,2.07252 -6.768974,4.49457 -10,5.38235 -3.231028,0.88778 -8.063119,3.46529 -10.737981,5.7278 -7.998529,6.76549 -27.517965,11.30684 -32.324114,7.52048 z M 137.5,205.1847 c 1.71875,-0.70193 2.4844,-1.31189 1.70145,-1.35546 C 136.2451,203.66469 100,216.83439 100,218.07312 c 0,0.48824 29.95411,-9.80673 37.5,-12.88842 z m 73.41146,-27.18991 c -0.41537,-0.41537 -1.4935,-0.45977 -2.39584,-0.0986 -0.99716,0.39903 -0.70097,0.69523 0.75522,0.7552 1.3177,0.0542 2.05599,-0.24116 1.64062,-0.65652 z m 10.96354,-21.3802 c -15.01553,-2.04544 -36.34614,-7.355 -44.99788,-11.20077 -27.6078,-12.27187 -28.4438,-12.60582 -37.12533,-14.83063 -4.33223,-1.11022 -10.40804,-3.52125 -13.50179,-5.35787 -3.09375,-1.83659 -7.19821,-4.0288 -9.12101,-4.87156 -1.92281,-0.84275 -5.95529,-3.54747 -8.96106,-6.01047 -5.06082,-4.14696 -9.432894,-6.60696 -37.845945,-21.294457 C 64.655326,90.11958 56.217826,86.499725 51.571985,85.00471 46.926142,83.509695 42.159121,81.420345 40.978602,80.361711 39.762201,79.270899 37.693092,78.734804 36.20318,79.124425 32.097311,80.198134 25.462111,75.4939 22.525155,69.426958 l -2.61969,-5.411558 3.871816,-5.736944 c 3.844996,-5.697203 3.88958,-5.720393 6.436239,-3.34782 2.095724,1.952463 3.110179,2.14046 5.550451,1.028598 1.642316,-0.74829 2.994643,-1.973361 3.00517,-2.722383 0.01336,-0.950318 0.296659,-0.939225 0.9375,0.03671 0.505098,0.769212 3.868911,2.886759 7.475141,4.705659 4.237872,2.137486 7.747137,5.105838 9.922542,8.393098 2.088745,3.156307 5.149165,5.799584 8.066185,6.966744 2.585232,1.034405 6.116682,3.737548 7.847665,6.006983 6.346148,8.320231 34.768306,23.924955 69.525776,38.171965 11.64201,4.77205 24.63477,10.42681 28.87279,12.56615 26.53853,13.39663 58.53823,21.19638 97.95826,23.87681 11.6875,0.79472 21.8125,1.95833 22.5,2.58579 1.21877,1.11235 -40.96624,0.3391 -55.625,-1.0196 -4.93395,-0.45732 -6.34563,-0.27419 -5,0.64866 1.46242,1.00295 1.04985,1.24889 -1.875,1.11775 -2.0625,-0.0925 -5.4375,-0.39802 -7.5,-0.67898 z M 215,153.02022 c -3.78125,-0.93682 -7.4375,-1.51391 -8.125,-1.2824 -1.49429,0.50319 8.92819,2.99632 12.5,2.99009 1.375,-0.002 -0.59375,-0.77086 -4.375,-1.70769 z m -16.58854,-6.27543 c -0.41537,-0.41536 -1.4935,-0.45977 -2.39584,-0.0986 -0.99716,0.39903 -0.70097,0.69523 0.75522,0.7552 1.3177,0.0542 2.05599,-0.24115 1.64062,-0.65652 z M 140.5625,122.64415 c -1.8655,-1.73723 -34.36613,-16.2422 -33.59406,-14.99297 0.99506,1.61005 6.93519,4.59198 21.15656,10.62053 13.75025,5.82883 14.15375,5.97069 12.4375,4.37244 z"
     id="path4977"
     inkscape:connector-curvature="0" />
</svg>
