<?xml version="1.0" encoding="UTF-8" standalone="no"?>
<!-- Created with Inkscape (http://www.inkscape.org/) -->

<svg
   xmlns:dc="http://purl.org/dc/elements/1.1/"
   xmlns:cc="http://creativecommons.org/ns#"
   xmlns:rdf="http://www.w3.org/1999/02/22-rdf-syntax-ns#"
   xmlns:svg="http://www.w3.org/2000/svg"
   xmlns="http://www.w3.org/2000/svg"
   xmlns:sodipodi="http://sodipodi.sourceforge.net/DTD/sodipodi-0.dtd"
   xmlns:inkscape="http://www.inkscape.org/namespaces/inkscape"
   id="svg5070"
   version="1.1"
   inkscape:version="0.91 r13725"
   width="312.5"
   height="312.5"
   viewBox="0 0 312.5 312.5"
   sodipodi:docname="f3.svg">
  <metadata
     id="metadata5076">
    <rdf:RDF>
      <cc:Work
         rdf:about="">
        <dc:format>image/svg+xml</dc:format>
        <dc:type
           rdf:resource="http://purl.org/dc/dcmitype/StillImage" />
        <dc:title></dc:title>
      </cc:Work>
    </rdf:RDF>
  </metadata>
  <defs
     id="defs5074" />
  <sodipodi:namedview
     pagecolor="#ffffff"
     bordercolor="#666666"
     borderopacity="1"
     objecttolerance="10"
     gridtolerance="10"
     guidetolerance="10"
     inkscape:pageopacity="0"
     inkscape:pageshadow="2"
     inkscape:window-width="1920"
     inkscape:window-height="1029"
     id="namedview5072"
     showgrid="false"
     inkscape:zoom="0.7552"
     inkscape:cx="-168.82945"
     inkscape:cy="156.25"
     inkscape:window-x="0"
     inkscape:window-y="0"
     inkscape:window-maximized="1"
     inkscape:current-layer="svg5070" />
  <path
     style="fill:#000000"
     d="M 163.125,270.4692 C 137.73391,266.63045 118.70148,260.79526 99.645604,251.00693 63.366178,232.37145 34.08612,197.95355 21.429399,159.0659 15.739055,141.58239 15.029847,121.80306 19.47585,104.5828 26.559434,77.146666 50.89647,52.481489 78.75,44.509443 c 12.287206,-3.51676 26.66134,-5.759152 36.875,-5.752569 11.88801,0.0076 36.23714,3.917636 47.18351,7.576713 24.92696,8.33241 41.59365,23.021954 48.23994,42.517319 3.46384,10.160353 6.86475,29.368594 6.06855,34.274984 -0.38631,2.38056 -0.17693,4.65306 0.4653,5.04997 2.22243,1.37354 1.15445,10.10987 -2.01287,16.46585 -3.92865,7.88379 -11.58724,16.71841 -18.78714,21.67208 -4.94108,3.39955 -5.33488,4.0427 -4.23949,6.92378 1.37212,3.60897 -0.32396,8.01243 -3.08616,8.01243 -0.93798,0 -4.71507,2.04657 -8.39353,4.54795 -16.95999,11.53285 -31.7044,14.4085 -48.19507,9.39961 C 118.43367,190.81326 103.16242,179.02139 95.378996,166.25 92.028851,160.75292 87.5,147.39535 87.5,143.01137 c 0,-2.80715 0.288436,-3.0781 1.875,-1.76137 1.590497,1.32 1.889974,1.0113 1.973684,-2.03445 0.05427,-1.9748 0.382401,-2.88743 0.729167,-2.02805 0.819484,2.0309 4.170059,2.0309 4.17912,0 0.0039,-0.85938 0.624729,-3.7876 1.379765,-6.50718 l 1.372795,-4.94468 1.856289,4.31968 1.85629,4.31968 2.04245,-3.125 c 3.75031,-5.73808 10.99042,-12.32813 14.51648,-13.21311 4.04759,-1.01588 5.08678,0.1053 7.23179,7.80228 0.7992,2.8678 2.41342,6.48733 3.58716,8.04339 2.0996,2.7835 2.19176,2.79258 5.70455,0.56151 1.96375,-1.24723 5.14396,-3.73188 7.06712,-5.52143 2.95205,-2.74695 3.68408,-2.96512 4.69994,-1.40069 0.6618,1.01917 0.90571,3.11867 0.54203,4.66555 -0.36369,1.54687 -0.31115,4.20742 0.11675,5.91234 0.64346,2.56376 1.17925,2.8851 3.09818,1.85812 1.27609,-0.68295 2.76483,-1.11755 3.3083,-0.96579 2.29523,0.64095 12.19983,-1.74066 16.62258,-3.99698 2.62901,-1.34123 5.92476,-4.04623 7.32389,-6.01112 3.14459,-4.41618 7.66667,-20.34279 7.66667,-27.00179 0,-6.415148 -4.3614,-15.335776 -8.56551,-17.519544 -1.82023,-0.945485 -4.61682,-3.49502 -6.21466,-5.665631 -4.29013,-5.827973 -9.38634,-8.402008 -22.58993,-11.409893 -10.74174,-2.447055 -12.84501,-2.561103 -22.45052,-1.21736 -5.82914,0.815457 -12.15927,2.289788 -14.06696,3.276293 -1.90769,0.986506 -7.01653,2.306847 -11.35297,2.934092 -10.596701,1.53276 -13.419137,2.773753 -20.697454,9.100429 -3.413153,2.966884 -7.410892,6.373204 -8.883865,7.5696 C 69.955159,90.246661 68.75,92.341591 68.75,93.705665 c 0,1.513369 -1.52234,3.267368 -3.905398,4.499694 -3.555264,1.838501 -3.72877,2.196191 -1.935281,3.989681 1.793489,1.79348 1.275103,2.31616 -5.782102,5.82998 -7.679159,3.8235 -7.759705,3.91873 -8.546613,10.10493 -0.436916,3.43478 -1.211674,9.14144 -1.721682,12.68148 -0.724965,5.03208 -0.483454,7.07009 1.106893,9.34063 1.1188,1.59732 2.046537,4.88842 2.061635,7.31358 0.03809,6.1176 3.495125,13.1286 10.809687,21.92245 3.425107,4.1178 10.026835,13.26925 14.670503,20.33653 15.818598,24.07466 30.084018,36.53497 58.189528,50.82638 8.96655,4.55941 16.30283,8.58512 16.30283,8.94601 0,0.3609 -2.67188,0.25658 -5.9375,-0.23184 -8.27065,-1.23693 -40.5217,-18.50985 -58.4375,-31.29777 l -6.25,-4.46111 5.625,5.27356 c 8.288394,7.77055 18.78427,14.5585 32.99899,21.34131 13.76525,6.56834 14.98558,7.4995 4.71017,3.59404 -23.29354,-8.85338 -41.735883,-22.28543 -55.28348,-40.26444 -8.066824,-10.70549 -15.687101,-24.84344 -19.252481,-35.71924 -1.19785,-3.65391 -2.435828,-6.38556 -2.75106,-6.07032 -1.270737,1.27072 6.303595,20.83834 11.69532,30.2138 11.321763,19.68699 23.868985,33.10859 40.840291,43.68634 15.72077,9.79832 39.9738,18.39525 57.04225,20.21966 3.78125,0.40416 11.10715,1.77952 16.27976,3.05635 5.17263,1.27682 14.32898,2.88102 20.34744,3.56489 6.01846,0.68386 11.36756,1.506 11.88689,1.82696 1.54663,0.95587 17.82626,-2.5285 28.45553,-6.09043 13.73269,-4.60188 33.85412,-15.3137 48.4408,-25.78787 6.75699,-4.85195 12.48934,-8.61781 12.73857,-8.36859 0.24922,0.24923 -0.56705,2.73179 -1.81394,5.51679 -5.7561,12.85667 -40.74543,31.6576 -71.96005,38.66652 -8.56549,1.9233 -48.06568,3.54093 -56.25,2.30358 z"
     id="path5620"
     inkscape:connector-curvature="0" />
</svg>
