<?xml version="1.0" encoding="UTF-8" standalone="no"?>
<!-- Created with Inkscape (http://www.inkscape.org/) -->

<svg
   xmlns:dc="http://purl.org/dc/elements/1.1/"
   xmlns:cc="http://creativecommons.org/ns#"
   xmlns:rdf="http://www.w3.org/1999/02/22-rdf-syntax-ns#"
   xmlns:svg="http://www.w3.org/2000/svg"
   xmlns="http://www.w3.org/2000/svg"
   xmlns:sodipodi="http://sodipodi.sourceforge.net/DTD/sodipodi-0.dtd"
   xmlns:inkscape="http://www.inkscape.org/namespaces/inkscape"
   id="svg5707"
   version="1.1"
   inkscape:version="0.92.3 (unknown)"
   width="312.5"
   height="312.5"
   viewBox="0 0 312.5 312.5"
   sodipodi:docname="f4.svg">
  <metadata
     id="metadata5713">
    <rdf:RDF>
      <cc:Work
         rdf:about="">
        <dc:format>image/svg+xml</dc:format>
        <dc:type
           rdf:resource="http://purl.org/dc/dcmitype/StillImage" />
        <dc:title />
      </cc:Work>
    </rdf:RDF>
  </metadata>
  <defs
     id="defs5711" />
  <sodipodi:namedview
     pagecolor="#ffffff"
     bordercolor="#666666"
     borderopacity="1"
     objecttolerance="10"
     gridtolerance="10"
     guidetolerance="10"
     inkscape:pageopacity="0"
     inkscape:pageshadow="2"
     inkscape:window-width="1920"
     inkscape:window-height="1029"
     id="namedview5709"
     showgrid="false"
     inkscape:zoom="0.7552"
     inkscape:cx="-131.75318"
     inkscape:cy="153.60169"
     inkscape:window-x="0"
     inkscape:window-y="0"
     inkscape:window-maximized="1"
     inkscape:current-layer="svg5707" />
  <path
     style="fill:#ffffff"
     d="m 149.78565,292.84526 c -5.02703,-0.53067 -7.67348,-3.43597 -8.85394,-9.71994 -0.70417,-3.74856 2.1773,-12.93298 3.6085,-11.50177 1.33221,1.3322 4.20979,-2.58781 4.20979,-5.73483 0,-1.67192 1.37227,-5.06202 3.0495,-7.53355 3.1018,-4.57075 10.7005,-25.065 10.7005,-28.86001 0,-1.14571 0.78044,-3.32895 1.73431,-4.85164 1.89543,-3.02568 4.00555,-11.74463 5.20784,-21.51852 0.81082,-6.59153 6.31915,-22.91794 9.489,-28.125 0.62779,-1.03125 1.4595,-2.81174 1.84825,-3.95664 0.38874,-1.14489 1.98745,-2.40305 3.55269,-2.7959 3.5668,-0.8952 12.81261,-12.49591 18.74563,-23.52012 4.7377,-8.80315 19.26624,-18.98715 36.15708,-25.34484 8.95475,-3.37057 13.18269,-3.41933 5.29496,-0.0611 -2.49137,1.06072 -6.5285,2.77752 -8.9714,3.81513 -2.44289,1.0376 -4.12121,2.40498 -3.7296,3.03862 0.39161,0.63365 0.0534,1.55911 -0.75151,2.05659 -0.91403,0.5649 -1.12865,0.36267 -0.57161,-0.53863 1.39247,-2.25308 -1.24698,-1.69283 -3.16509,0.67182 -1.47856,1.82277 -1.45653,1.97012 0.15945,1.06661 2.70196,-1.51069 0.71162,0.25785 -9.43563,8.38411 -4.84585,3.88071 -9.90835,8.32629 -11.25,9.87905 -1.34166,1.55275 -7.6e-4,0.87854 2.97977,-1.49826 14.2909,-11.3962 25.45116,-19.13445 34.58086,-23.97753 8.29241,-4.39892 11.60086,-5.43565 19.375,-6.07133 5.15625,-0.42162 13.62289,-1.49832 18.81475,-2.39268 5.42017,-0.93369 11.50441,-1.23877 14.28851,-0.71647 7.02218,1.31736 3.19878,3.16858 -6.59346,3.19241 -23.63968,0.0575 -50.15385,11.25767 -67.72905,28.61019 -9.29121,9.17348 -31.5352,41.56513 -38.30795,55.78395 -2.2923,4.8125 -6.07584,16.22616 -8.40785,25.3637 -3.65344,14.31522 -4.07,17.41095 -3.011,22.37627 0.9722,4.55838 0.82249,6.61513 -0.71645,9.84231 -1.50816,3.16264 -1.59358,4.21478 -0.37996,4.68049 2.20321,0.84545 1.71995,12.86856 -0.74562,18.54995 -1.4889,3.43088 -2.95767,4.77743 -5.92096,5.42828 -2.54724,0.55947 -4.34547,1.92973 -5.08499,3.87478 -0.67606,1.77819 -2.05162,2.92325 -3.36253,2.79909 -1.22014,-0.11562 -4.28364,-0.42815 -6.80779,-0.69461 z M 10,196.53945 c 0,-0.70854 5.132191,-1.67456 11.5625,-2.17638 27.203611,-2.12295 49.360375,-11.88016 67.041822,-29.52332 6.824647,-6.80986 31.001568,-41.71161 36.743598,-53.04296 3.40392,-6.7173 8.40218,-22.311592 11.57822,-36.123303 1.62352,-7.06028 1.72645,-9.681833 0.54572,-13.898969 -1.23356,-4.405861 -1.12669,-5.832705 0.70169,-9.36841 1.47737,-2.856926 1.71104,-4.319576 0.74167,-4.642699 -2.09643,-0.698812 -1.7355,-13.162379 0.54634,-18.865236 1.58336,-3.95723 2.75151,-5.050616 6.05883,-5.671071 2.76252,-0.518253 4.5762,-1.819828 5.56748,-3.995462 0.98476,-2.161292 2.11587,-2.979058 3.42545,-2.476522 1.07538,0.412659 4.12362,1.097027 6.77387,1.52082 3.86685,0.618334 5.20324,1.581007 6.76572,4.87371 1.0709,2.256747 1.94709,4.918605 1.94709,5.915237 0,3.944647 -2.78641,9.468439 -5.07863,10.067865 -1.54591,0.404264 -2.42137,1.716902 -2.42137,3.630503 0,1.648514 -1.56718,5.49805 -3.48263,8.554524 -1.91543,3.056475 -5.35986,11.463476 -7.65427,18.682226 -2.29441,7.21875 -4.74939,14.237306 -5.45551,15.596791 -2.2183,4.270852 -4.62732,14.812316 -4.64275,20.315956 -0.0127,4.53354 -3.99024,17.19965 -7.65689,24.38279 -0.60938,1.1938 -1.10795,3.03957 -1.10795,4.10173 0,1.06215 -0.87608,2.26738 -1.94684,2.67827 -1.07076,0.41088 -1.66746,1.47512 -1.32599,2.36497 0.37164,0.96848 -0.86866,2.13715 -3.08993,2.91149 -3.42911,1.1954 -8.76758,6.4113 -11.76224,11.4922 -11.62463,19.72294 -14.763451,22.93964 -30.859309,31.62496 -8.121107,4.38215 -20.725984,8.98721 -21.762496,7.9507 -0.321666,-0.32166 3.511649,-2.20972 8.518479,-4.19569 5.006828,-1.98596 9.010535,-4.17071 8.897122,-4.855 C 78.895309,182.71902 81.21232,180 82.891968,180 c 0.734721,0 0.243971,0.82586 -1.090556,1.83525 -1.334527,1.00937 -1.792162,1.85312 -1.016968,1.875 1.500175,0.0424 3.960968,-2.4253 4.066096,-4.07736 0.03473,-0.54565 2.75443,-3.1462 6.043796,-5.77899 3.289365,-2.63278 7.664586,-6.68633 9.722714,-9.00789 l 3.74205,-4.22101 -4.992051,4.5296 c -8.080106,7.33157 -22.098175,16.95696 -33.300431,22.86546 -9.064221,4.7808 -12.090546,5.70016 -22.941618,6.96933 C 22.869911,197.35846 10,197.96071 10,196.53945 Z m 142.46906,-20.99583 c -0.67049,-1.7635 -1.21906,-4.576 -1.21906,-6.25 0,-2.84828 -0.4323,-3.04362 -6.73589,-3.04362 l -6.73589,0 -0.84571,-4.50804 c -1.23235,-6.56897 3.79875,-16.29718 10.75936,-20.80446 6.12183,-3.96413 15.10069,-4.64321 21.00727,-1.5888 4.51648,2.33556 5.15103,4.14859 2.96634,8.47525 -1.57267,3.11454 -1.49543,3.71311 0.79649,6.1732 3.14884,3.37987 3.21579,4.75285 0.23177,4.75285 -1.26845,0 -3.32438,1.125 -4.56874,2.5 -1.24436,1.375 -2.98584,2.5 -3.86996,2.5 -2.40504,0 -3.4099,2.38101 -1.8156,4.30203 1.08402,1.30617 0.73676,2.221 -1.52134,4.00773 -1.6093,1.27339 -3.30033,3.29961 -3.75783,4.50274 -1.19626,3.14592 -3.2798,2.69341 -4.69121,-1.01888 z m 5.0118,-8.35612 c 0.0105,-0.51563 -0.82461,-0.9375 -1.85586,-0.9375 -1.91408,0 -2.56105,2.64729 -1.02289,4.18545 0.83934,0.83934 2.84141,-1.41951 2.87875,-3.24795 z"
     id="path6257"
     inkscape:connector-curvature="0" />
</svg>
