<?xml version="1.0" encoding="UTF-8" standalone="no"?>
<!-- Created with Inkscape (http://www.inkscape.org/) -->

<svg
   xmlns:dc="http://purl.org/dc/elements/1.1/"
   xmlns:cc="http://creativecommons.org/ns#"
   xmlns:rdf="http://www.w3.org/1999/02/22-rdf-syntax-ns#"
   xmlns:svg="http://www.w3.org/2000/svg"
   xmlns="http://www.w3.org/2000/svg"
   xmlns:sodipodi="http://sodipodi.sourceforge.net/DTD/sodipodi-0.dtd"
   xmlns:inkscape="http://www.inkscape.org/namespaces/inkscape"
   id="svg6892"
   version="1.1"
   inkscape:version="0.91 r13725"
   width="312.5"
   height="312.5"
   viewBox="0 0 312.5 312.5"
   sodipodi:docname="f5.svg">
  <metadata
     id="metadata6898">
    <rdf:RDF>
      <cc:Work
         rdf:about="">
        <dc:format>image/svg+xml</dc:format>
        <dc:type
           rdf:resource="http://purl.org/dc/dcmitype/StillImage" />
        <dc:title></dc:title>
      </cc:Work>
    </rdf:RDF>
  </metadata>
  <defs
     id="defs6896" />
  <sodipodi:namedview
     pagecolor="#ffffff"
     bordercolor="#666666"
     borderopacity="1"
     objecttolerance="10"
     gridtolerance="10"
     guidetolerance="10"
     inkscape:pageopacity="0"
     inkscape:pageshadow="2"
     inkscape:window-width="1920"
     inkscape:window-height="1029"
     id="namedview6894"
     showgrid="false"
     inkscape:zoom="0.7552"
     inkscape:cx="156.25"
     inkscape:cy="156.25"
     inkscape:window-x="0"
     inkscape:window-y="0"
     inkscape:window-maximized="1"
     inkscape:current-layer="svg6892" />
  <path
     style="fill:#000000"
     d="m 160,291.70036 c -1.71875,-0.26607 -5.58349,-0.80213 -8.5883,-1.19126 -4.11401,-0.53278 -5.10864,-1.06216 -4.02726,-2.14354 0.86226,-0.86226 8.78856,-1.78319 19.83828,-2.30492 20.67298,-0.97612 31.61839,-3.48177 45.93138,-10.51469 24.7893,-12.18065 43.31976,-36.52448 51.32064,-67.42095 3.94173,-15.22153 4.53641,-39.28726 1.33175,-53.89429 -5.62944,-25.65924 -21.25425,-50.88364 -38.14174,-61.575266 -8.19451,-5.188017 -27.35599,-10.939193 -42.18567,-12.661715 -27.67393,-3.214426 -57.7267,5.001347 -76.99583,21.048981 -6.37105,5.3059 -11.024035,10.48904 -13.29754,14.81261 -2.258796,4.29561 -1.784496,12.04044 0.876919,14.31922 1.271946,1.08907 2.684843,4.30782 3.139772,7.1528 0.918009,5.74088 1.026869,5.82627 4.602699,3.61016 1.83231,-1.13558 2.76692,-1.18084 3.42054,-0.16566 0.49465,0.76825 3.99311,2.3084 7.77436,3.42252 3.78125,1.11414 10.25,3.99899 14.375,6.41079 4.125,2.4118 9.9051,5.6314 12.84466,7.15467 2.93956,1.52328 5.09345,3.42424 4.78641,4.22435 -0.30703,0.80013 0.24697,3.0068 1.2311,4.90374 1.24143,2.39285 1.3978,3.92076 0.51068,4.98969 -1.56482,1.88549 0.19972,3.53795 6.66052,6.23745 5.4998,2.29796 5.78047,4.55507 1.37295,11.04131 -1.77026,2.60519 -4.02781,6.67326 -5.01677,9.04018 -1.34915,3.22898 -2.55574,4.30346 -4.83255,4.30346 -1.66895,0 -3.42481,0.6316 -3.9019,1.40356 -0.57186,0.92529 -4.03181,1.20048 -10.15379,0.8076 -7.49135,-0.48077 -10.9018,-1.44511 -17.64383,-4.98895 -7.22634,-3.79841 -8.32669,-4.83045 -8.12999,-7.62534 0.15443,-2.19423 -0.52763,-3.47203 -2.12371,-3.97861 -1.29317,-0.41044 -2.06965,-1.47997 -1.72552,-2.37675 0.4123,-1.07445 -1.26491,-2.15983 -4.918011,-3.18265 -8.178437,-2.28981 -17.591138,-11.82026 -22.676185,-22.95985 -8.200214,-17.96385 -9.536579,-33.5782 -3.865804,-45.16885 3.470344,-7.09313 24.717184,-31.916364 27.345219,-31.948132 0.817586,-0.0099 7.392771,-2.874352 14.611521,-6.365489 7.21875,-3.491134 19.875,-8.855103 28.125,-11.91993 8.25,-3.064826 17.04977,-6.359456 19.55506,-7.321398 6.58659,-2.529025 42.82455,-2.46833 50.05818,0.08384 2.91636,1.028953 6.75926,1.550859 8.53976,1.159793 2.27361,-0.499368 4.67435,0.264181 8.06476,2.564974 3.95863,2.686402 5.34309,3.041062 7.69249,1.970605 3.20186,-1.458865 5.16849,0.590085 10.30095,10.732167 1.46447,2.893878 4.91184,7.342602 7.66082,9.886056 2.74898,2.543454 6.4788,7.206987 8.28849,10.363405 1.80969,3.156419 4.8138,7.426449 6.67581,9.488949 1.862,2.0625 7.38918,12.1875 12.2826,22.5 6.78072,14.28981 9.2432,20.98009 10.35192,28.125 3.60463,23.22929 -4.02135,59.25727 -17.38694,82.14232 -4.87325,8.34415 -16.22621,22.25703 -17.29208,21.19118 -0.67282,-0.67284 4.29287,-8.66205 8.62733,-13.88038 7.69527,-9.26445 17.37727,-35.80355 17.08839,-46.84057 -0.0896,-3.42475 -0.52204,-2.45129 -1.82575,4.11033 -1.79714,9.04497 -7.24914,26.3415 -9.30718,29.52712 -1.7895,2.76995 -1.50652,0.92018 0.64813,-4.23662 9.56482,-22.89183 11.97645,-63.65655 5.35388,-90.49877 -2.16472,-8.77391 -2.28323,-5.31958 -0.20703,6.03426 2.55943,13.99648 2.49646,39.83415 -0.13394,54.95113 -5.57388,32.03322 -22.05169,62.95015 -39.1616,73.47798 -6.50898,4.00502 -9.74904,5.4235 -31.49905,13.79018 -15.97771,6.14622 -36.24281,9.73137 -46.25,8.1822 z M 100,253.75 c -1.03125,-0.66645 -4.46838,-1.22034 -7.638066,-1.23086 -4.086628,-0.0136 -7.123245,-0.94218 -10.438932,-3.19227 -3.660878,-2.48433 -5.055425,-2.85812 -6.424433,-1.72195 -2.406902,1.99756 -4.530114,0.0445 -9.445889,-8.68888 -2.179759,-3.87258 -6.298721,-9.32316 -9.15325,-12.11243 -2.85453,-2.78926 -7.024095,-8.27696 -9.2657,-12.19487 -2.241605,-3.91793 -5.112418,-7.67835 -6.379581,-8.35652 -1.267164,-0.67817 -2.971483,-3.34672 -3.787375,-5.93012 -0.815893,-2.58341 -3.87098,-9.1971 -6.789085,-14.6971 C 22.23108,169.70495 19.838865,162.0613 19.137022,148.75 17.63756,120.31086 28.181198,84.755847 44.313935,63.848982 49.731351,56.828401 55,51.433571 55,52.906991 55,54.185794 46.403422,67.257635 44.986549,68.133311 40.51691,70.895699 30.309585,98.13673 29.427545,109.65676 l -0.648378,8.46824 1.811177,-8.59788 c 2.065497,-9.805188 7.539708,-26.735736 9.547102,-29.527123 1.088636,-1.513807 1.186401,-1.39341 0.507511,0.625 -9.157041,27.224793 -11.159327,39.669763 -10.320836,64.147963 0.540906,15.79077 3.838426,37.73116 5.431373,36.13821 0.251598,-0.2516 -0.316748,-4.91891 -1.26299,-10.37181 C 31.464406,153.0894 31.005971,143.29404 32.505055,128.07367 34.219657,110.66513 38.113548,94.357666 43.840711,80.600401 48.248013,70.013586 60.05804,51.456362 65.827564,46.052218 70.255063,41.905112 84.575711,34.019806 91.59315,31.865043 c 2.905017,-0.892009 9.5006,-3.322269 14.65685,-5.400579 14.28674,-5.7585 28.08436,-8.127367 43.3769,-7.447236 7.13188,0.317188 13.58166,1.191336 14.33289,1.942551 1.76965,1.769657 -2.7355,2.463069 -21.45979,3.302996 -49.143802,2.204471 -83.263624,29.904267 -95.797925,77.772475 -4.60493,17.58612 -4.643207,41.95236 -0.09318,59.3122 7.201304,27.47527 24.007584,50.7268 43.014413,59.51051 15.537932,7.18061 28.364932,9.69143 49.126682,9.61628 16.03385,-0.058 19.41759,-0.458 29.32846,-3.46653 27.569,-8.36881 49.42154,-26.07595 49.42154,-40.04634 0,-3.75625 -0.66231,-5.52362 -2.5,-6.67128 -1.44125,-0.90008 -2.5,-2.91503 -2.5,-4.75787 0,-1.75811 -0.60173,-4.32091 -1.33718,-5.69511 -1.08323,-2.02405 -1.68477,-2.21004 -3.16761,-0.9794 -1.36671,1.13428 -2.53215,1.16965 -4.60032,0.13965 -1.52344,-0.75872 -4.88579,-1.92497 -7.4719,-2.59167 -2.5861,-0.6667 -10.88298,-4.7031 -18.4375,-8.96977 -12.38567,-6.99523 -13.73549,-8.10306 -13.73549,-11.27298 0,-1.93347 -0.58981,-3.87993 -1.3107,-4.32545 -0.88799,-0.54882 -0.81313,-1.40959 0.23212,-2.66904 1.73169,-2.08656 1.34658,-2.47216 -6.73392,-6.7422 -5.67611,-2.99949 -5.82235,-5.05916 -0.8774,-12.35747 2.07054,-3.05592 4.09126,-6.85769 4.4905,-8.44838 0.44839,-1.78655 1.98711,-3.19282 4.02514,-3.67864 1.8146,-0.43256 3.96488,-1.30917 4.77843,-1.94802 0.83809,-0.65812 5.44305,-0.79216 10.625,-0.30927 7.05838,0.65774 11.08557,1.88567 17.64453,5.37999 7.3354,3.90798 8.40322,4.90811 7.80122,7.30663 -0.49615,1.97683 0.0375,3.17221 1.84883,4.14162 1.40045,0.7495 2.23302,1.86956 1.85018,2.48902 -0.38284,0.61946 1.68064,1.83838 4.58553,2.70871 3.43454,1.02901 7.74203,4.0011 12.31701,8.49849 11.07489,10.88707 17.47353,27.17486 17.47353,44.47904 0,7.4317 -0.63261,10.17868 -3.807,16.53122 -4.10989,8.22461 -25.03825,31.53081 -28.31385,31.53081 -1.03195,0 -6.86131,2.51806 -12.95414,5.59569 -6.09282,3.07762 -20.17829,8.98387 -31.30104,13.125 L 145.90079,255 123.88789,254.9809 C 111.7808,254.9703 101.03125,254.41645 100,253.75 Z"
     id="path7442"
     inkscape:connector-curvature="0" />
</svg>
