<?xml version="1.0" encoding="UTF-8" standalone="no"?>
<!-- Created with Inkscape (http://www.inkscape.org/) -->

<svg
   xmlns:dc="http://purl.org/dc/elements/1.1/"
   xmlns:cc="http://creativecommons.org/ns#"
   xmlns:rdf="http://www.w3.org/1999/02/22-rdf-syntax-ns#"
   xmlns:svg="http://www.w3.org/2000/svg"
   xmlns="http://www.w3.org/2000/svg"
   xmlns:sodipodi="http://sodipodi.sourceforge.net/DTD/sodipodi-0.dtd"
   xmlns:inkscape="http://www.inkscape.org/namespaces/inkscape"
   id="svg7545"
   version="1.1"
   inkscape:version="0.91 r13725"
   width="312.5"
   height="312.5"
   viewBox="0 0 312.5 312.5"
   sodipodi:docname="f6.svg">
  <metadata
     id="metadata7551">
    <rdf:RDF>
      <cc:Work
         rdf:about="">
        <dc:format>image/svg+xml</dc:format>
        <dc:type
           rdf:resource="http://purl.org/dc/dcmitype/StillImage" />
        <dc:title></dc:title>
      </cc:Work>
    </rdf:RDF>
  </metadata>
  <defs
     id="defs7549" />
  <sodipodi:namedview
     pagecolor="#ffffff"
     bordercolor="#666666"
     borderopacity="1"
     objecttolerance="10"
     gridtolerance="10"
     guidetolerance="10"
     inkscape:pageopacity="0"
     inkscape:pageshadow="2"
     inkscape:window-width="1920"
     inkscape:window-height="1029"
     id="namedview7547"
     showgrid="false"
     inkscape:zoom="0.7552"
     inkscape:cx="156.25"
     inkscape:cy="156.25"
     inkscape:window-x="0"
     inkscape:window-y="0"
     inkscape:window-maximized="1"
     inkscape:current-layer="svg7545" />
  <path
     style="fill:#000000"
     d="m 142.09485,294.92302 c -19.64232,-1.74231 -28.33041,-3.73516 -37.92152,-8.69835 -30.095319,-15.57363 -63.938304,-57.63331 -72.25724,-89.80045 -2.094322,-8.09819 -1.758219,-11.95948 0.519529,-5.96856 0.69056,1.81631 2.393797,5.80097 3.784972,8.85479 1.391175,3.05381 2.529409,6.16816 2.529409,6.92076 0,2.25796 4.966654,11.31158 11.667698,21.26879 6.825823,10.14264 16.710484,21.20082 22.703537,25.39895 2.064571,1.44624 -0.376256,-1.8207 -5.42406,-7.25984 -8.779317,-9.45995 -17.39628,-20.73019 -21.992381,-28.76411 -2.121325,-3.70805 -2.119788,-3.71554 0.137441,-0.66896 1.25552,1.69457 4.810366,6.47582 7.899656,10.625 9.112494,12.23885 26.001226,29.04951 39.117264,38.93645 11.959515,9.01513 31.535215,19.60022 39.015845,21.09687 2.22736,0.44564 0.9585,-0.46255 -3.125,-2.23671 C 106.20451,274.83231 93.038286,265.41036 73.021034,244.74717 58.942036,230.21386 45.359657,211.54842 39.41606,198.5659 c -1.764843,-3.85493 -4.379353,-11.63784 -5.81002,-17.29536 -2.514049,-9.94173 -2.533599,-10.68663 -0.583403,-22.22974 2.072304,-12.26585 4.36772,-18.59291 14.09103,-38.84037 6.71207,-13.97697 18.388423,-27.079881 30.534742,-34.265333 14.104263,-8.343723 14.57712,-4.168591 0.65318,5.767325 C 42.935417,116.9392 31.503455,160.06465 50.090431,198.125 c 10.064388,20.60874 31.349256,44.28639 51.786209,57.60787 20.02332,13.05185 33.57315,17.36327 51.68341,16.44509 10.689,-0.54191 12.57849,-1.04542 22.16617,-5.90684 13.19103,-6.68846 33.75934,-20.06637 43.99348,-28.61395 22.92585,-19.14772 35.38358,-44.29662 39.17021,-79.07445 1.87499,-17.22051 0.85126,-26.95383 -3.91352,-37.2092 -3.72576,-8.01903 -15.29418,-20.8472 -17.54531,-19.45592 -1.98973,1.22972 -11.49493,-8.752525 -20.65509,-21.691712 -0.1554,-0.21951 -1.43085,0.318021 -2.83434,1.194515 -2.1309,1.33077 -2.92415,1.259676 -4.80922,-0.431027 -1.24159,-1.113559 -5.91368,-3.247437 -10.38243,-4.741948 -4.46875,-1.494513 -11.29596,-4.638785 -15.1716,-6.987273 -3.87563,-2.348487 -9.06889,-5.114948 -11.5406,-6.147691 -2.8677,-1.198202 -4.76893,-2.973106 -5.25371,-4.904644 -0.41784,-1.66481 -1.50903,-3.314471 -2.42487,-3.665911 -0.98365,-0.377457 -1.38941,-1.693485 -0.99141,-3.215446 0.62524,-2.390881 0.13266,-2.576465 -6.83829,-2.576465 -5.07558,0 -7.71777,-0.536094 -8.14632,-1.652875 -0.34884,-0.909081 -0.332,-6.497742 0.0374,-12.419246 0.64515,-10.341 0.80954,-10.823469 4.16072,-12.211572 1.91896,-0.79486 3.76268,-2.158341 4.09715,-3.029958 0.33447,-0.871618 5.79327,-2.591897 12.13068,-3.822842 11.08852,-2.153778 11.76351,-2.15319 17.91919,0.01563 8.40625,2.961724 20.77169,9.146255 20.77169,10.388862 0,0.540103 -0.62289,1.604896 -1.3842,2.366205 -1.01226,1.012266 -0.67639,1.763006 1.25,2.79398 1.44881,0.77538 2.6342,2.188534 2.6342,3.140342 0,0.956571 2.6794,2.620518 5.99086,3.720409 7.03055,2.335171 16.63227,11.612579 25.96299,25.08607 3.33277,4.8125 9.28567,12.696282 13.22867,17.519516 8.89768,10.883997 15.77827,24.555531 21.47528,42.670721 4.08772,12.99802 4.27067,14.26923 2.70694,18.80806 -0.92242,2.67727 -2.29125,11.46735 -3.04188,19.53344 -0.75062,8.0661 -1.87549,17.32122 -2.49969,20.56695 -0.6242,3.24572 -2.39633,12.6173 -3.9381,20.82574 l -2.80317,14.92441 -11.81898,17.57559 c -12.44197,18.50203 -27.33407,34.80962 -33.86831,37.08748 -2.36199,0.82339 -3.8889,2.30936 -4.1328,4.02197 -0.34884,2.44946 -1.37955,2.79848 -10.49847,3.555 -7.93923,0.65864 -11.14197,1.53806 -14.90729,4.09328 -2.6376,1.78992 -8.77485,4.39967 -13.63834,5.79943 -4.86349,1.39976 -10.68992,3.35466 -12.94762,4.34421 -4.41237,1.93396 -6.26942,1.9718 -23.17524,0.47223 z m 0.4449,-62.71022 c -0.0219,-1.18921 0.89946,-4.50952 2.04738,-7.37845 1.14792,-2.86894 2.71668,-8.359 3.48615,-12.20014 1.07424,-5.36265 2.11316,-7.3554 4.47537,-8.58427 3.4749,-1.80772 9.6972,-1.09593 15.87931,1.8165 2.34437,1.10444 5.3744,1.57771 7.1875,1.12265 1.8101,-0.4543 3.13454,-0.24849 3.13454,0.4871 0,0.7006 1.46642,1.27381 3.25874,1.27381 2.45798,0 3.0723,0.48585 2.5,1.97724 -0.41732,1.08747 -0.75874,2.203 -0.75874,2.47893 0,1.06522 -13.0069,7.02176 -20.38209,9.33402 -9.33585,2.92697 -9.48221,2.94121 -6.41932,0.62456 2.31615,-1.75184 2.32092,-1.83705 0.10512,-1.875 -1.5423,-0.0264 -2.07979,-0.66894 -1.60172,-1.91475 0.39572,-1.03125 0.21256,-1.875 -0.40704,-1.875 -0.61959,0 -1.46762,1.07467 -1.88451,2.38817 -0.41689,1.31351 -2.14229,3.29522 -3.83423,4.40382 -1.69195,1.10861 -3.07626,2.73891 -3.07626,3.62291 0,0.884 -0.82586,2.69916 -1.83525,4.03369 -1.64209,2.17103 -1.83942,2.19885 -1.875,0.26421 z M 162.5,217.42622 c 0,-0.64692 -0.5625,-1.17622 -1.25,-1.17622 -0.6875,0 -1.25,0.87695 -1.25,1.94877 0,1.07183 0.5625,1.60113 1.25,1.17623 0.6875,-0.4249 1.25,-1.30185 1.25,-1.94878 z m -30,-25.95424 c 0,-0.56542 1.76002,-4.27756 3.91116,-8.2492 3.6753,-6.78573 3.86253,-7.76019 3.10471,-16.15948 -0.73518,-8.14848 -0.53563,-9.33615 2.25814,-13.44073 3.50054,-5.14289 9.24986,-8.01407 13.77394,-6.87861 1.7334,0.43507 4.79694,3.24868 6.95932,6.3916 2.12455,3.08794 4.67955,5.61444 5.67778,5.61444 0.99822,0 1.81495,0.87695 1.81495,1.94878 0,1.07182 0.42808,1.6842 0.95129,1.36083 0.5232,-0.32336 1.92422,0.1235 3.11336,0.99303 2.04855,1.49794 2.04783,1.68067 -0.0137,3.48016 -1.19672,1.04456 -5.21134,2.60913 -8.92135,3.47679 -4.48921,1.04989 -8.36777,3.0432 -11.59554,5.95929 -2.66752,2.40995 -5.13002,4.10175 -5.47221,3.75955 -0.3422,-0.3422 0.23516,-1.3337 1.28303,-2.20335 2.09982,-1.7427 2.64883,-4.3822 0.65521,-3.15008 -0.6875,0.4249 -1.25,0.14365 -1.25,-0.625 0,-2.76406 -2.19333,0.0291 -2.93506,3.73781 -0.46384,2.31917 -1.91435,4.31672 -3.73792,5.14758 -1.63896,0.74677 -3.89268,3.2718 -5.00826,5.61119 -1.83885,3.85604 -4.5688,5.78329 -4.5688,3.2254 z m 52.81777,-2.90421 c -1.90979,-1.9098 0.3114,-4.97755 2.88808,-3.98877 0.9752,0.37421 2.11925,-0.22173 2.54235,-1.32431 0.4231,-1.10258 1.51741,-2.00469 2.43181,-2.00469 2.5953,0 10.54707,-9.06978 10.55915,-12.04374 0.0144,-3.52961 5.68254,-7.12907 11.57334,-7.34937 4.33005,-0.16193 4.6875,0.0886 4.6875,3.28513 0,1.90324 0.49874,3.76867 1.1083,4.1454 0.60956,0.37673 1.47255,2.80055 1.91775,5.38627 0.4452,2.58572 1.10875,6.21446 1.47456,8.06386 0.54689,2.76492 0.0394,3.67527 -2.85525,5.12204 -4.66462,2.3314 -34.12996,2.90581 -36.32759,0.70818 z m 31.8245,-2.63027 c -0.31132,-0.85938 0.29148,-2.54688 1.33958,-3.75 2.61808,-3.00535 -0.0574,-2.78085 -2.78556,0.23374 -1.20517,1.33167 -1.82164,3.01917 -1.36997,3.75 1.15022,1.8611 3.50408,1.66571 2.81595,-0.23374 z m -112.66978,-13.75 c -3.93159,-6.89484 -11.054705,-13.54526 -17.689448,-16.5156 -7.8103,-3.49663 -10.525131,-8.40546 -8.008625,-14.48085 1.68848,-4.07635 6.840628,-7.44105 11.394003,-7.44105 1.535914,0 6.059121,0.91655 10.05157,2.03677 6.0294,1.69177 7.59453,1.75832 9.23978,0.39288 1.61226,-1.33806 2.16602,-1.34415 2.97653,-0.0328 0.75625,1.22362 1.61558,1.27946 3.57256,0.23212 1.41723,-0.75845 2.89502,-1.37902 3.28396,-1.37902 1.71089,0 0.42681,7.16236 -1.79282,10 -1.34443,1.71875 -2.45692,3.85222 -2.4722,4.74105 -0.0153,0.88882 -2.55905,4.32216 -5.6528,7.62964 -3.09375,3.30746 -5.625,6.71026 -5.625,7.56178 0,0.85152 1.125,2.97842 2.5,4.72644 2.53386,3.22128 3.31073,6.59109 1.51951,6.59109 -0.53927,0 -2.02293,-1.82813 -3.29702,-4.0625 z M 101.25,155.85886 c 0,-0.21512 -1.783405,-2.04325 -3.963121,-4.0625 l -3.963123,-3.67136 2.79824,4.0625 c 2.296769,3.33446 5.128004,5.36146 5.128004,3.67136 z m 89.68805,-18.21446 c 2.92158,-2.67058 5.31195,-5.13581 5.31195,-5.47831 0,-0.34249 -3.03221,-2.10624 -6.73825,-3.91943 -3.70603,-1.8132 -8.20603,-4.45128 -10,-5.86241 -3.71481,-2.92208 -4.40309,-5.63247 -1.07425,-4.23032 6.23077,2.62446 15.3973,-0.47814 20.03743,-6.7821 1.56745,-2.1295 3.53619,-3.86172 4.375,-3.84937 1.52774,0.0225 9.65007,11.45198 9.65007,13.57928 0,0.62194 -0.84375,1.45456 -1.875,1.85029 -2.41779,0.9278 -2.37771,2.61668 0.12137,5.11581 2.59853,2.59852 1.55047,5.0766 -3.1821,7.5239 -3.39047,1.75329 -3.81431,1.76055 -3.81431,0.0654 0,-2.45215 -2.01496,-2.47406 -2.95203,-0.0321 -0.39573,1.03125 -2.05623,1.875 -3.69,1.875 -1.63378,0 -3.9886,1.125 -5.23297,2.5 -1.24436,1.375 -3.15941,2.5 -4.25567,2.5 -1.25471,0 -0.0251,-1.79904 3.31872,-4.8556 z m 15.07054,-9.55248 c -0.38486,-0.38486 -1.08382,0.30889 -1.55323,1.54167 -0.67835,1.7815 -0.53477,1.92507 0.69975,0.69975 0.85428,-0.84793 1.23834,-1.85655 0.85348,-2.24142 z M 142.5,118.53032 c -3.09375,-0.64319 -8.90356,-1.78688 -12.91069,-2.54152 -7.80993,-1.47081 -13.05809,-4.66001 -11.58659,-7.04095 0.50573,-0.81829 2.17708,-1.13662 3.81252,-0.72615 1.60161,0.40198 3.28783,0.12278 3.74716,-0.62042 0.45933,-0.7432 1.78815,-1.35128 2.95292,-1.35128 3.01357,0 9.40022,-7.114163 8.4978,-9.465797 -0.40606,-1.058171 0.0999,-3.930084 1.12442,-6.382029 1.56057,-3.734955 2.16425,-4.207831 3.72166,-2.915284 1.02244,0.848538 2.68107,1.22732 3.68589,0.841739 1.13295,-0.434752 2.13783,0.278516 2.6454,1.877696 0.67318,2.121034 1.54985,2.46007 4.93899,1.910089 3.19832,-0.519017 4.70799,-0.04331 6.74552,2.125521 1.44375,1.536805 2.625,3.76788 2.625,4.957945 0,2.54502 -5.41816,8.31698 -7.75569,8.26211 -0.97691,-0.0229 -0.75151,-0.54346 0.56819,-1.31211 1.20312,-0.70076 2.1875,-1.84185 2.1875,-2.53576 0,-0.69392 -0.5625,-0.91402 -1.25,-0.48912 -0.71395,0.44125 -1.28734,-0.73322 -1.33706,-2.73873 -0.0708,-2.8529 -0.42857,-2.400873 -1.90833,2.41078 -1.38535,4.50467 -2.56121,6.10776 -4.91294,6.69801 -3.83077,0.96146 -3.82743,1.17933 0.097,6.32445 3.41784,4.48101 3.23805,4.56668 -5.68861,2.71081 z"
     id="path8095"
     inkscape:connector-curvature="0" />
</svg>
