<?xml version="1.0" encoding="UTF-8" standalone="no"?>
<!-- Created with Inkscape (http://www.inkscape.org/) -->

<svg
   xmlns:dc="http://purl.org/dc/elements/1.1/"
   xmlns:cc="http://creativecommons.org/ns#"
   xmlns:rdf="http://www.w3.org/1999/02/22-rdf-syntax-ns#"
   xmlns:svg="http://www.w3.org/2000/svg"
   xmlns="http://www.w3.org/2000/svg"
   xmlns:sodipodi="http://sodipodi.sourceforge.net/DTD/sodipodi-0.dtd"
   xmlns:inkscape="http://www.inkscape.org/namespaces/inkscape"
   id="svg8182"
   version="1.1"
   inkscape:version="0.91 r13725"
   width="312.5"
   height="312.5"
   viewBox="0 0 312.5 312.5"
   sodipodi:docname="f7.svg">
  <metadata
     id="metadata8188">
    <rdf:RDF>
      <cc:Work
         rdf:about="">
        <dc:format>image/svg+xml</dc:format>
        <dc:type
           rdf:resource="http://purl.org/dc/dcmitype/StillImage" />
        <dc:title></dc:title>
      </cc:Work>
    </rdf:RDF>
  </metadata>
  <defs
     id="defs8186" />
  <sodipodi:namedview
     pagecolor="#ffffff"
     bordercolor="#666666"
     borderopacity="1"
     objecttolerance="10"
     gridtolerance="10"
     guidetolerance="10"
     inkscape:pageopacity="0"
     inkscape:pageshadow="2"
     inkscape:window-width="1920"
     inkscape:window-height="1029"
     id="namedview8184"
     showgrid="false"
     inkscape:zoom="0.7552"
     inkscape:cx="-168.82945"
     inkscape:cy="156.25"
     inkscape:window-x="0"
     inkscape:window-y="0"
     inkscape:window-maximized="1"
     inkscape:current-layer="svg8182" />
  <path
     style="fill:#000000"
     d="m 137.5,295.4465 c -18.93176,-2.31894 -40.290476,-10.44668 -54.375,-20.69159 -6.560523,-4.77204 -19.969619,-16.97095 -22.75725,-20.70337 -1.921013,-2.5721 -4.100756,-5.23904 -4.843876,-5.92654 -0.743119,-0.6875 -3.274369,-4.34898 -5.625,-8.13662 -2.35063,-3.78764 -4.978341,-8.00639 -5.839359,-9.375 -0.861016,-1.36861 -2.113407,-3.75582 -2.783091,-5.30491 -0.669684,-1.54908 -2.28362,-5.20533 -3.586524,-8.125 C 31.537716,203.39713 26.320959,181.02514 26.273033,168.22241 26.21382,152.40684 33.259558,127.03224 42.786046,108.75217 51.283619,92.446465 59.44715,81.660851 74.955549,66.249995 90.039584,51.260834 89.554236,51.663905 103.75,42.336779 125.22535,28.2267 140.8249,21.804553 166.25,16.606264 c 9.20429,-1.881864 9.48831,-1.863465 15.59819,1.01043 l 6.22319,2.927196 -4.97319,1.088444 c -16.00013,3.501826 -36.28688,8.874569 -39.15034,10.368571 -1.82757,0.953529 -4.12777,1.737154 -5.11159,1.741389 -3.05292,0.01314 -31.94723,15.024756 -38.57479,20.040971 -3.458317,2.6175 -7.463162,5.388101 -8.899659,6.15689 -1.436496,0.76879 -2.611811,2.152884 -2.611811,3.075764 0,0.92288 -0.984375,2.449965 -2.1875,3.39352 -2.028761,1.591063 -2.051437,1.53414 -0.3125,-0.784444 1.736155,-2.314874 1.714034,-2.373809 -0.298738,-0.795866 -1.195555,0.937273 -1.839747,2.244538 -1.431538,2.905035 0.408208,0.660495 -0.342063,2.424885 -1.66727,3.920866 -3.427141,3.868784 -9.487984,13.965313 -13.63856,22.719965 -1.955661,4.125 -5.921583,11.204895 -8.813159,15.733095 -2.891576,4.52821 -6.222448,10.71572 -7.401935,13.75001 -1.179489,3.0343 -2.607046,6.12385 -3.172353,6.86569 C 47.608853,133.63387 42.5,159.1516 42.5,167.31799 c 0,16.3963 6.305672,35.40361 17.150542,51.6972 6.15358,9.24529 21.636893,24.65806 28.096057,27.96805 2.270621,1.16357 4.409651,2.52378 4.753401,3.0227 0.34375,0.49891 2.03125,1.29132 3.75,1.76091 2.187438,0.59765 1.6249,-0.0769 -1.875,-2.24839 -21.924476,-13.6028 -36.006165,-32.08192 -43.92619,-57.64346 -2.902215,-9.36678 -3.382188,-40.88518 -0.685272,-45 1.50149,-2.2909 1.576543,-2.18635 0.89734,1.25 -2.361537,11.94792 -2.196758,21.05567 0.612539,33.8567 1.578649,7.19339 3.656473,14.04962 4.617386,15.23609 1.570758,1.93946 1.613332,1.88041 0.421773,-0.58504 -3.336635,-6.9038 -5.203897,-61.35986 -2.037652,-59.42525 0.632457,0.38644 0.78997,-0.23541 0.350027,-1.38189 -0.455744,-1.18765 0.556588,-4.63715 2.352922,-8.01755 4.187751,-7.88063 5.73258,-9.33084 4.94699,-4.644 -3.486189,20.79867 -4.106026,37.09877 -1.838085,48.33692 1.504434,7.4548 7.018742,21.85101 9.517536,24.84745 0.905127,1.08538 1.652201,2.49163 1.660162,3.125 0.008,0.63336 3.899465,6.21407 8.647784,12.40157 4.748318,6.1875 10.769089,14.80953 13.379491,19.16004 5.866153,9.7766 12.494989,15.90726 19.132319,17.69451 2.78617,0.75024 6.22516,2.60864 7.6422,4.12976 2.25299,2.41849 4.32305,2.86603 16.48945,3.56497 13.84978,0.79563 13.92783,0.78427 17.16574,-2.5 1.789,-1.8146 4.5419,-5.40865 6.11758,-7.98678 1.57567,-2.57812 3.2912,-4.6875 3.81226,-4.6875 0.52108,0 1.65277,1.54688 2.51487,3.4375 l 1.56747,3.4375 2.90912,-3.6463 c 2.45394,-3.07575 3.73014,-3.61413 8.15618,-3.4407 3.12856,0.12262 7.07988,-0.76527 9.78656,-2.19906 2.49672,-1.32257 7.90224,-3.40725 12.01225,-4.63264 6.1887,-1.84514 8.87356,-3.63298 15.625,-10.40464 4.48374,-4.49716 11.09828,-10.05887 14.69898,-12.35935 7.18223,-4.58871 15.10324,-13.37302 18.20786,-20.19231 C 252.02274,184.8952 255,172.30459 255,166.42447 255,161.20454 251.66756,152.5 249.66916,152.5 c -0.61478,0 -0.74922,-1.67814 -0.29874,-3.72919 0.95899,-4.36625 -1.98882,-15.52321 -5.25542,-19.89081 -5.08976,-6.8053 -25.64044,-26.38001 -27.69526,-26.38001 -0.59018,0 -0.89572,1.26563 -0.67895,2.8125 0.21676,1.54688 0.62435,5.41513 0.90577,8.59613 l 0.51166,5.78363 -5.83417,0.69097 c -3.20879,0.38004 -10.86626,2.10391 -17.0166,3.83083 -7.79603,2.189 -12.7989,2.92184 -16.52018,2.41994 -4.75042,-0.64071 -5.24383,-0.47525 -4.4844,1.5038 0.55592,1.44869 0.0557,2.80691 -1.43498,3.89699 -1.93812,1.41718 -2.06484,2.16368 -0.8281,4.87805 2.31648,5.08413 1.69474,8.30823 -2.77708,14.40047 -4.77806,6.50948 -10.07405,8.4571 -25.13771,9.24458 -7.82544,0.40907 -9.45361,0.0666 -15.40896,-3.24037 -3.66244,-2.03377 -12.09994,-5.07167 -18.75001,-6.75087 C 91.306671,146.10746 90,145.43516 90,140.80835 c 0,-2.13859 1.476201,-8.23239 3.280448,-13.54177 1.804246,-5.30938 2.946899,-10.52263 2.539231,-11.585 -0.498899,-1.30012 -2.388642,-1.93159 -5.780448,-1.93159 -5.302347,0 -6.282731,-1.16188 -3.164231,-3.75 2.805759,-2.32857 2.391471,-7.59899 -0.660054,-8.39698 -1.843317,-0.48204 -2.324364,-1.32676 -1.762925,-3.095688 0.566156,-1.7838 0.07534,-2.614976 -1.839946,-3.115832 C 81.175434,95.0158 80,94.481594 80,94.204366 c 0,-0.724278 6.473714,-10.959094 7.403235,-11.704371 0.428731,-0.34375 1.806427,-2.236841 3.061547,-4.206869 5.850441,-9.182803 30.977598,-32.043131 35.220528,-32.043131 0.54607,0 1.88088,-0.751109 2.96626,-1.669131 1.08539,-0.918023 3.94218,-2.413099 6.34843,-3.32239 2.40625,-0.909293 6.625,-2.63622 9.375,-3.837619 12.54715,-5.4815 32.59545,-6.262323 44.375,-1.728275 3.09375,1.19081 8.82109,2.41391 12.72742,2.717999 6.60253,0.513975 7.1964,0.822454 8.4375,4.382682 0.73429,2.106385 1.33508,4.742574 1.33508,5.858197 0,1.515315 2.13427,2.426796 8.4375,3.603381 17.27514,3.224645 35.89703,15.218817 35.12061,22.620821 -0.19631,1.871532 0.79439,4.983315 2.24446,7.049856 1.42775,2.034714 3.58854,5.949479 4.80174,8.699479 1.2132,2.75 5.18553,11.187495 8.82739,18.749995 11.44919,23.77477 15.23231,42.26538 12.95489,63.31903 -3.1943,29.52963 -17.21993,56.95644 -41.76159,81.66389 -15.20185,15.30454 -41.91175,31.18156 -60.625,36.03698 -17.35741,4.50361 -33.2462,6.33822 -43.75,5.05161 z M 50.476946,111.81007 c 0.42687,-1.11241 0.217311,-1.61415 -0.491264,-1.17623 -0.679625,0.42003 -1.235682,1.293 -1.235682,1.93992 0,1.79804 0.895958,1.40183 1.726946,-0.76369 z M 78.557693,72.499995 c 2.0625,-2.0625 3.336007,-3.75 2.830017,-3.75 -0.50599,0 -2.53671,1.6875 -4.51271,3.75 -1.976,2.0625 -3.249509,3.75 -2.830017,3.75 0.419489,0 2.45021,-1.6875 4.51271,-3.75 z M 51.348684,141.77084 c 0.05998,-1.45619 0.356176,-1.75238 0.755208,-0.75521 0.361089,0.90233 0.31668,1.98046 -0.09869,2.39583 -0.415365,0.41537 -0.710801,-0.32292 -0.656525,-1.64062 z"
     id="path8732"
     inkscape:connector-curvature="0" />
</svg>
