<?xml version="1.0" encoding="UTF-8" standalone="no"?>
<!-- Created with Inkscape (http://www.inkscape.org/) -->

<svg
   xmlns:dc="http://purl.org/dc/elements/1.1/"
   xmlns:cc="http://creativecommons.org/ns#"
   xmlns:rdf="http://www.w3.org/1999/02/22-rdf-syntax-ns#"
   xmlns:svg="http://www.w3.org/2000/svg"
   xmlns="http://www.w3.org/2000/svg"
   xmlns:sodipodi="http://sodipodi.sourceforge.net/DTD/sodipodi-0.dtd"
   xmlns:inkscape="http://www.inkscape.org/namespaces/inkscape"
   version="1.1"
   id="svg1589"
   width="313"
   height="313"
   viewBox="0 0 312.99999 312.99999"
   sodipodi:docname="f8b.svg"
   inkscape:version="0.92.4 (unknown)">
  <metadata
     id="metadata1595">
    <rdf:RDF>
      <cc:Work
         rdf:about="">
        <dc:format>image/svg+xml</dc:format>
        <dc:type
           rdf:resource="http://purl.org/dc/dcmitype/StillImage" />
        <dc:title></dc:title>
      </cc:Work>
    </rdf:RDF>
  </metadata>
  <defs
     id="defs1593" />
  <sodipodi:namedview
     pagecolor="#929292"
     bordercolor="#666666"
     borderopacity="1"
     objecttolerance="10"
     gridtolerance="10"
     guidetolerance="10"
     inkscape:pageopacity="0"
     inkscape:pageshadow="2"
     inkscape:window-width="3200"
     inkscape:window-height="1694"
     id="namedview1591"
     showgrid="false"
     fit-margin-top="0"
     fit-margin-left="0"
     fit-margin-right="0"
     fit-margin-bottom="0"
     inkscape:zoom="1.8894611"
     inkscape:cx="-245.17356"
     inkscape:cy="102.94814"
     inkscape:window-x="0"
     inkscape:window-y="0"
     inkscape:window-maximized="1"
     inkscape:current-layer="svg1589" />
  <path
     style="color:#000000;clip-rule:nonzero;display:inline;overflow:visible;visibility:visible;opacity:1;isolation:auto;mix-blend-mode:normal;color-interpolation:sRGB;color-interpolation-filters:linearRGB;solid-color:#000000;solid-opacity:1;fill:#ffffff;fill-opacity:1;fill-rule:evenodd;stroke:#000000;stroke-width:2.12123728;stroke-linecap:round;stroke-linejoin:round;stroke-miterlimit:4;stroke-dasharray:4.24247442, 2.12123721;stroke-dashoffset:0;stroke-opacity:0;marker:none;color-rendering:auto;image-rendering:auto;shape-rendering:auto;text-rendering:auto;enable-background:accumulate"
     d="m 178.19477,36.452653 c -17.03267,0.575328 -29.29934,4.772631 -29.29934,11.594621 0,2.535107 -6.05636,7.19542 -13.44254,10.372392 -7.38618,3.177125 -24.63045,16.760216 -38.330587,30.163836 -13.70011,13.403478 -32.389934,26.880958 -41.51983,29.955078 -22.697376,7.6421 -22.443545,22.26841 0.506655,30.07426 22.359336,7.60486 25.846085,6.20347 31.20694,-12.48875 4.683966,-16.332 13.936692,-25.16611 65.960802,-62.920618 27.25214,-19.777107 35.06222,-22.958505 61.0428,-24.888067 l 29.8061,-2.235388 -31.74345,-6.527459 c -12.02925,-2.48261 -23.96795,-3.44495 -34.18755,-3.099905 z m -5.57373,89.805707 c -10.14925,0.69741 -20.15477,4.57866 -30.58101,11.65413 -9.89467,6.71471 -19.86665,12.19071 -22.1459,12.19071 -4.71261,0 -10.07444,11.99308 -10.07444,22.53334 0,3.89346 3.85405,8.47777 8.55434,10.19369 4.7003,1.71576 13.77323,7.15681 20.17869,12.07136 14.20068,10.89553 41.06105,11.65048 49.56747,1.40093 3.43524,-4.13915 6.70062,-14.82378 7.24286,-23.75541 0.54222,-8.93148 2.52966,-18.74365 4.41131,-21.78816 2.23372,-3.61419 -1.27748,-5.54391 -10.07444,-5.54391 -10.30624,0 -12.10101,-1.34141 -7.71978,-5.72276 4.38125,-4.38119 8.71924,-4.3551 18.53937,0.12209 10.58708,4.82375 11.81533,7.11454 6.8852,13.05507 -3.37976,4.07232 -3.86369,7.21297 -1.10289,7.21297 5.45564,0 18.31723,-13.93974 15.32032,-16.60196 -1.05436,-0.93701 -8.96003,-5.25686 -17.55577,-9.62737 -11.01829,-5.60205 -21.29608,-8.08909 -31.44533,-7.39182 z m 111.11697,48.34543 c -12.99075,0.0458 -21.63142,6.59171 -29.86566,21.34102 -13.15885,23.57031 -25.71634,30.25877 -79.49276,42.32464 -91.423718,20.51282 -97.407606,21.25205 -126.82474,15.67792 -15.443828,-2.92639 -32.481925,-6.96712 -37.8536915,-8.97161 -5.3717662,-2.00434 -8.1059951,-1.81236 -6.0804425,0.41662 6.471681,7.12385 83.581751,30.71399 101.996314,31.20706 9.76505,0.26096 24.05025,-2.83727 31.74345,-6.88532 8.01287,-4.21607 19.58555,-6.16059 27.09371,-4.5602 9.84132,2.09758 29.59931,-5.24923 79.34371,-29.50809 58.03879,-28.30372 66.25886,-33.77605 66.25886,-44.17255 0,-8.45153 -3.37299,-12.7201 -11.71379,-14.81356 -5.44001,-1.36584 -10.27471,-2.07256 -14.60496,-2.05669 z"
     id="rect2225"
     inkscape:connector-curvature="0" />
</svg>
