<?xml version="1.0" encoding="UTF-8" standalone="no"?>
<!-- Created with Inkscape (http://www.inkscape.org/) -->

<svg
   xmlns:dc="http://purl.org/dc/elements/1.1/"
   xmlns:cc="http://creativecommons.org/ns#"
   xmlns:rdf="http://www.w3.org/1999/02/22-rdf-syntax-ns#"
   xmlns:svg="http://www.w3.org/2000/svg"
   xmlns="http://www.w3.org/2000/svg"
   xmlns:sodipodi="http://sodipodi.sourceforge.net/DTD/sodipodi-0.dtd"
   xmlns:inkscape="http://www.inkscape.org/namespaces/inkscape"
   version="1.1"
   id="svg2306"
   width="313"
   height="313"
   viewBox="0 0 313 312.99999"
   sodipodi:docname="f9.svg"
   inkscape:version="0.92.4 (unknown)">
  <metadata
     id="metadata2312">
    <rdf:RDF>
      <cc:Work
         rdf:about="">
        <dc:format>image/svg+xml</dc:format>
        <dc:type
           rdf:resource="http://purl.org/dc/dcmitype/StillImage" />
        <dc:title></dc:title>
      </cc:Work>
    </rdf:RDF>
  </metadata>
  <defs
     id="defs2310" />
  <sodipodi:namedview
     pagecolor="#d0d0d0"
     bordercolor="#666666"
     borderopacity="1"
     objecttolerance="10"
     gridtolerance="10"
     guidetolerance="10"
     inkscape:pageopacity="0"
     inkscape:pageshadow="2"
     inkscape:window-width="3200"
     inkscape:window-height="1694"
     id="namedview2308"
     showgrid="false"
     fit-margin-top="0"
     fit-margin-left="0"
     fit-margin-right="0"
     fit-margin-bottom="0"
     inkscape:zoom="1.0028678"
     inkscape:cx="100.88036"
     inkscape:cy="275.44389"
     inkscape:window-x="0"
     inkscape:window-y="0"
     inkscape:window-maximized="1"
     inkscape:current-layer="svg2306" />
  <path
     style="color:#000000;clip-rule:nonzero;display:inline;overflow:visible;visibility:visible;opacity:1;isolation:auto;mix-blend-mode:normal;color-interpolation:sRGB;color-interpolation-filters:linearRGB;solid-color:#000000;solid-opacity:1;fill:#000000;fill-opacity:1;fill-rule:evenodd;stroke:#000000;stroke-width:2.02039123;stroke-linecap:round;stroke-linejoin:round;stroke-miterlimit:4;stroke-dasharray:4.04078271, 2.02039135000000014;stroke-dashoffset:0;stroke-opacity:0;marker:none;color-rendering:auto;image-rendering:auto;shape-rendering:auto;text-rendering:auto;enable-background:accumulate"
     d="m 129.35547,66.389806 c -15.38768,0.41134 -31.092027,2.63755 -44.20175,6.61453 -12.557983,3.80967 -27.641207,6.9561 -33.499063,6.98372 -11.467567,0.0581 -45.0630983,15.64379 -49.6240519,23.023594 -1.52985773,2.47535 6.1103321,6.89651 16.9766499,9.82259 42.659284,11.48687 109.001945,44.1034 124.485955,61.20681 3.96224,4.37655 15.57288,8.95586 25.80565,10.16315 45.32552,5.34794 79.13602,13.68619 87.8073,21.66093 2.25459,2.07344 -10.95801,8.34276 -29.38266,13.93895 -26.87257,8.16238 -41.48511,9.77666 -73.86828,8.1477 -41.43859,-2.08449 -62.52701,-9.24016 -83.407028,-28.33228 -5.755935,-5.26305 -10.447167,-7.11585 -10.447167,-4.11637 0,6.22019 38.893304,31.99951 54.648915,36.22446 5.75594,1.54349 10.44717,4.54006 10.44717,6.64302 0,9.91634 73.94422,11.40779 100.01461,2.01559 10.23277,-3.68656 25.97591,-6.74651 34.9753,-6.78503 13.72583,-0.0581 51.07187,-18.70286 51.07187,-25.49326 0,-1.00584 -11.33593,-5.11639 -25.18106,-9.14133 C 251.1117,188.83076 206.34406,168.01055 177.95752,148.74634 161.469,137.55657 146.34413,131.56909 129.12836,129.38503 102.47257,126.00342 60.329869,113.90985 53.556718,107.69576 44.686589,99.557946 103.6344,87.003316 150.67565,87.028606 c 48.90082,0.0291 65.22765,4.97525 90.19198,27.281834 7.50714,6.70784 10.39638,7.66964 8.94255,2.95253 -2.6442,-8.57954 -55.94181,-40.323674 -78.18342,-46.558104 -11.81149,-3.31083 -26.88361,-4.72641 -42.27129,-4.31506 z"
     id="rect2861"
     inkscape:connector-curvature="0" />
</svg>
