<?xml version="1.0" encoding="UTF-8" standalone="no"?>
<!-- Created with Inkscape (http://www.inkscape.org/) -->

<svg
   xmlns:dc="http://purl.org/dc/elements/1.1/"
   xmlns:cc="http://creativecommons.org/ns#"
   xmlns:rdf="http://www.w3.org/1999/02/22-rdf-syntax-ns#"
   xmlns:svg="http://www.w3.org/2000/svg"
   xmlns="http://www.w3.org/2000/svg"
   xmlns:sodipodi="http://sodipodi.sourceforge.net/DTD/sodipodi-0.dtd"
   xmlns:inkscape="http://www.inkscape.org/namespaces/inkscape"
   version="1.1"
   id="svg933"
   width="313"
   height="313"
   viewBox="0 0 312.99999 313.00001"
   sodipodi:docname="fyb.svg"
   inkscape:version="0.92.4 (unknown)">
  <metadata
     id="metadata939">
    <rdf:RDF>
      <cc:Work
         rdf:about="">
        <dc:format>image/svg+xml</dc:format>
        <dc:type
           rdf:resource="http://purl.org/dc/dcmitype/StillImage" />
        <dc:title></dc:title>
      </cc:Work>
    </rdf:RDF>
  </metadata>
  <defs
     id="defs937" />
  <sodipodi:namedview
     pagecolor="#a79898"
     bordercolor="#666666"
     borderopacity="1"
     objecttolerance="10"
     gridtolerance="10"
     guidetolerance="10"
     inkscape:pageopacity="0"
     inkscape:pageshadow="2"
     inkscape:window-width="3200"
     inkscape:window-height="1694"
     id="namedview935"
     showgrid="false"
     fit-margin-top="0"
     fit-margin-left="0"
     fit-margin-right="0"
     fit-margin-bottom="0"
     inkscape:zoom="0.63142122"
     inkscape:cx="-632.39498"
     inkscape:cy="326.02926"
     inkscape:window-x="0"
     inkscape:window-y="0"
     inkscape:window-maximized="1"
     inkscape:current-layer="svg933" />
  <path
     style="color:#000000;clip-rule:nonzero;display:inline;overflow:visible;visibility:visible;opacity:1;isolation:auto;mix-blend-mode:normal;color-interpolation:sRGB;color-interpolation-filters:linearRGB;solid-color:#000000;solid-opacity:1;fill:#ffffff;fill-opacity:1;fill-rule:evenodd;stroke:#000000;stroke-width:2.32047248;stroke-linecap:round;stroke-linejoin:round;stroke-miterlimit:4;stroke-dasharray:4.64094493, 2.32047247;stroke-dashoffset:0;stroke-opacity:0;marker:none;color-rendering:auto;image-rendering:auto;shape-rendering:auto;text-rendering:auto;enable-background:accumulate"
     d="m 80.30062,14.712183 c -2.183398,0.0048 -4.779439,0.490805 -8.020955,1.303805 -7.957285,1.997108 -16.290602,6.439728 -18.519958,9.879536 -5.593892,8.630822 -2.552253,22.302078 4.956045,22.302078 11.322086,0 48.662948,31.753913 61.233228,52.071068 6.81686,11.01807 15.3662,20.05256 18.97644,20.05256 3.61025,0 9.29,5.0623 12.61834,11.2815 4.75807,8.89041 4.34114,13.00499 -1.85851,19.20466 -6.95197,6.9519 -9.8838,5.38784 -24.87804,-13.27043 -9.35367,-11.63942 -21.0594,-29.29004 -26.019236,-39.2245 C 92.170471,85.057556 85.668857,79.782237 74.3338,78.488282 45.825744,75.233944 40.173274,104.024 67.388826,113.8653 c 18.212587,6.58564 38.295644,25.18815 54.027404,50.01687 8.98796,14.18526 8.96776,14.19996 -23.378186,48.778 -17.79567,19.02353 -45.571926,44.7953 -61.722314,57.25524 -16.150371,12.45993 -29.345012,24.90468 -29.345012,27.68223 0,2.77756 10.206323,-3.20976 22.69347,-13.3357 12.487146,-10.12594 32.330108,-23.32643 44.082716,-29.31241 22.487699,-11.45379 66.776186,-51.29062 66.776186,-60.0595 0,-10.59688 10.70137,-4.59437 18.42215,10.33595 4.82766,9.33581 18.12669,20.31148 33.5185,27.61696 14.03637,6.66226 32.24704,16.78603 40.49612,22.4979 26.93885,18.65292 20.97338,5.67781 -6.74935,-14.67257 -23.88219,-17.53108 -64.33078,-60.43361 -64.33078,-68.24342 0,-10.41442 21.27206,-6.51836 51.32116,9.42295 19.26564,10.2206 36.26833,18.58515 37.75724,18.58515 1.48894,0 -8.9299,-9.21178 -23.14995,-20.47625 -43.33371,-34.32697 -43.08031,-32.20081 -8.57527,-70.33018 16.79456,-18.55861 43.22662,-41.832278 58.72261,-51.745036 15.49602,-9.91259 28.11839,-19.764916 28.0734,-21.878382 -0.20434,-9.597574 -10.94128,-19.371605 -23.08475,-20.997939 -10.30388,-1.380597 -17.5946,3.465016 -32.44252,21.584902 -10.53501,12.856586 -19.17208,25.63087 -19.17208,28.366857 0,2.735821 -12.69298,17.515561 -28.20381,32.833848 l -28.2038,27.84517 -34.85535,-36.06181 C 120.90027,69.748281 101.06494,44.284017 95.983908,32.970795 89.774341,19.144953 86.850846,14.697492 80.30062,14.711682 Z"
     id="rect1508"
     inkscape:connector-curvature="0" />
</svg>
